<svg width="389" height="214" viewBox="0 0 389 214" fill="none" xmlns="http://www.w3.org/2000/svg">
<g clipPath="url(#clip0_350_893)" filter="url(#filter0_b_350_893)">
<rect width="389" height="214" fill="#A1AEE5" fill-opacity="0.02"/>
<g clipPath="url(#clip1_350_893)">
<g style="mix-blend-mode:screen" opacity="0.6">
<g opacity="0.2" filter="url(#filter1_f_350_893)">
<path d="M761.339 -176.51L775.003 -162.562L535.276 82.1445L368.032 244.654L521.611 68.1969L761.339 -176.51Z" fill="url(#paint0_linear_350_893)"/>
</g>
<g opacity="0.32" filter="url(#filter2_f_350_893)">
<path d="M647.426 -170.626L661.089 -156.679L421.363 88.0278L254.119 250.537L407.698 74.0802L647.426 -170.626Z" fill="url(#paint1_linear_350_893)"/>
</g>
<g opacity="0.32" filter="url(#filter3_f_350_893)">
<path d="M603.691 -230.497L617.356 -216.548L377.628 28.1574L210.385 190.668L363.964 14.2098L603.691 -230.497Z" fill="url(#paint2_linear_350_893)"/>
</g>
<g opacity="0.2" filter="url(#filter4_f_350_893)">
<path d="M597.25 -206.617L610.915 -192.67L371.187 52.0368L203.943 214.546L357.522 38.088L597.25 -206.617Z" fill="url(#paint3_linear_350_893)"/>
</g>
<g opacity="0.32" filter="url(#filter5_f_350_893)">
<path d="M483.337 -200.734L497.002 -186.787L257.274 57.9201L90.0298 220.43L243.609 43.9713L483.337 -200.734Z" fill="url(#paint4_linear_350_893)"/>
</g>
<g opacity="0.32" filter="url(#filter6_f_350_893)">
<path d="M439.603 -260.605L453.267 -246.656L213.539 -1.95023L46.2961 160.559L199.875 -15.8978L439.603 -260.605Z" fill="url(#paint5_linear_350_893)"/>
</g>
</g>
<g style="mix-blend-mode:screen" opacity="0.6">
<g opacity="0.32" filter="url(#filter7_f_350_893)">
</g>
</g>
<path d="M-51.6897 331.011C-51.6517 330.933 -51.6387 330.844 -51.6525 330.758C-51.6663 330.672 -51.7062 330.592 -51.7667 330.53C-51.8271 330.469 -51.905 330.428 -51.9894 330.413C-52.0738 330.399 -52.1605 330.412 -52.2372 330.451C-52.3144 330.487 -52.3761 330.55 -52.411 330.629C-52.4491 330.708 -52.4623 330.796 -52.4486 330.882C-52.4349 330.968 -52.395 331.048 -52.3347 331.109C-52.2743 331.171 -52.1965 331.212 -52.1122 331.226C-52.0278 331.24 -51.9413 331.227 -51.8647 331.188C-51.7871 331.153 -51.7249 331.09 -51.6897 331.011ZM175.094 317.157C175.132 317.079 175.145 316.991 175.132 316.905C175.118 316.818 175.078 316.739 175.018 316.677C174.957 316.615 174.879 316.574 174.795 316.56C174.71 316.546 174.624 316.559 174.547 316.597C174.47 316.634 174.408 316.697 174.373 316.776C174.335 316.854 174.321 316.943 174.335 317.029C174.348 317.115 174.388 317.195 174.448 317.257C174.509 317.319 174.587 317.36 174.671 317.374C174.756 317.388 174.843 317.375 174.919 317.336C174.997 317.3 175.059 317.236 175.094 317.157ZM90.2936 147.921C90.3321 147.843 90.3456 147.755 90.3321 147.668C90.3186 147.582 90.2788 147.502 90.2183 147.44C90.1579 147.378 90.0798 147.337 89.9953 147.323C89.9107 147.309 89.8239 147.322 89.7473 147.361C89.6698 147.397 89.6077 147.461 89.5722 147.54C89.5342 147.618 89.5212 147.706 89.535 147.793C89.5488 147.879 89.5888 147.958 89.6492 148.02C89.7096 148.082 89.7875 148.123 89.8719 148.137C89.9563 148.152 90.043 148.138 90.1197 148.1C90.1969 148.064 90.2586 148 90.2936 147.921ZM142.59 138.448C142.629 138.37 142.643 138.281 142.63 138.194C142.616 138.108 142.576 138.027 142.515 137.965C142.455 137.903 142.376 137.862 142.291 137.849C142.206 137.835 142.119 137.849 142.042 137.889C141.965 137.925 141.903 137.989 141.868 138.068C141.706 138.436 142.054 138.792 142.415 138.626C142.492 138.59 142.554 138.527 142.59 138.448ZM149.329 223.46C149.367 223.382 149.38 223.294 149.366 223.208C149.352 223.121 149.312 223.042 149.252 222.98C149.192 222.918 149.114 222.877 149.029 222.863C148.945 222.849 148.858 222.862 148.781 222.9C148.704 222.936 148.642 222.999 148.608 223.079C148.569 223.157 148.556 223.245 148.57 223.331C148.584 223.418 148.624 223.497 148.684 223.559C148.744 223.621 148.822 223.661 148.906 223.676C148.991 223.69 149.077 223.677 149.154 223.638C149.231 223.602 149.293 223.539 149.329 223.46ZM353.04 345.924C353.078 345.846 353.091 345.757 353.078 345.671C353.064 345.584 353.024 345.505 352.963 345.443C352.902 345.381 352.824 345.34 352.74 345.326C352.655 345.312 352.568 345.325 352.491 345.364C352.414 345.4 352.353 345.464 352.318 345.543C352.28 345.621 352.267 345.709 352.28 345.796C352.294 345.882 352.334 345.961 352.395 346.023C352.455 346.085 352.533 346.126 352.617 346.14C352.702 346.155 352.788 346.141 352.865 346.103C352.943 346.067 353.005 346.003 353.04 345.924ZM243.837 313.904C243.876 313.826 243.889 313.737 243.876 313.651C243.862 313.564 243.823 313.484 243.762 313.422C243.701 313.36 243.623 313.319 243.538 313.305C243.453 313.291 243.366 313.305 243.289 313.344C243.212 313.381 243.151 313.444 243.116 313.523C243.078 313.601 243.065 313.689 243.079 313.775C243.093 313.861 243.132 313.941 243.193 314.002C243.253 314.064 243.331 314.105 243.415 314.12C243.499 314.134 243.585 314.121 243.662 314.083C243.739 314.047 243.801 313.983 243.837 313.904Z" fill="#A1AEE5" fill-opacity="0.4"/>
<path d="M-41.0032 269.608C-40.9643 269.529 -40.9507 269.441 -40.9642 269.354C-40.9777 269.268 -41.0176 269.187 -41.0783 269.125C-41.139 269.063 -41.2173 269.022 -41.3022 269.008C-41.387 268.994 -41.4739 269.008 -41.5507 269.048C-41.6281 269.083 -41.69 269.147 -41.7245 269.226C-41.7626 269.304 -41.7758 269.393 -41.7621 269.479C-41.7484 269.565 -41.7085 269.644 -41.6482 269.706C-41.5878 269.768 -41.51 269.809 -41.4256 269.823C-41.3413 269.837 -41.2547 269.824 -41.1782 269.785C-41.1006 269.75 -41.0384 269.687 -41.0032 269.608ZM-34.2546 174.146C-34.2164 174.068 -34.2032 173.979 -34.217 173.892C-34.2308 173.806 -34.2709 173.726 -34.3315 173.664C-34.3922 173.602 -34.4703 173.562 -34.555 173.547C-34.6397 173.533 -34.7265 173.547 -34.8033 173.586C-34.8812 173.621 -34.9435 173.685 -34.9783 173.764C-35.0161 173.843 -35.029 173.931 -35.015 174.017C-35.001 174.104 -34.9609 174.183 -34.9003 174.245C-34.8398 174.306 -34.7618 174.347 -34.6774 174.361C-34.5929 174.375 -34.5063 174.362 -34.4296 174.323C-34.3521 174.288 -34.2898 174.225 -34.2546 174.146ZM-39.8904 217.706C-39.8527 217.628 -39.8398 217.54 -39.8536 217.454C-39.8675 217.368 -39.9073 217.289 -39.9675 217.227C-40.0277 217.165 -40.1053 217.124 -40.1894 217.11C-40.2736 217.095 -40.3601 217.108 -40.4368 217.146C-40.5142 217.183 -40.5763 217.246 -40.6118 217.325C-40.6506 217.403 -40.6642 217.492 -40.6507 217.579C-40.6372 217.665 -40.5973 217.745 -40.5366 217.807C-40.4759 217.869 -40.3976 217.91 -40.3128 217.924C-40.228 217.938 -40.141 217.925 -40.0643 217.885C-39.9872 217.849 -39.9256 217.785 -39.8904 217.706ZM142.315 270.909C142.353 270.831 142.366 270.742 142.352 270.655C142.338 270.569 142.298 270.489 142.238 270.427C142.177 270.365 142.099 270.325 142.014 270.31C141.929 270.296 141.843 270.31 141.766 270.349C141.688 270.385 141.626 270.448 141.591 270.527C141.553 270.606 141.54 270.694 141.554 270.78C141.568 270.867 141.608 270.946 141.669 271.008C141.729 271.069 141.807 271.11 141.892 271.124C141.976 271.138 142.063 271.125 142.14 271.086C142.217 271.051 142.279 270.988 142.315 270.909Z" fill="#A1AEE5" fill-opacity="0.4"/>
<path d="M115.253 237.949C115.292 237.871 115.305 237.782 115.291 237.695C115.277 237.609 115.237 237.529 115.176 237.467C115.116 237.405 115.038 237.365 114.953 237.35C114.868 237.336 114.781 237.35 114.705 237.389C114.627 237.424 114.565 237.488 114.531 237.567C114.493 237.646 114.481 237.734 114.495 237.82C114.509 237.906 114.548 237.985 114.609 238.047C114.669 238.108 114.747 238.149 114.831 238.163C114.915 238.178 115.002 238.165 115.078 238.126C115.156 238.091 115.219 238.028 115.253 237.949ZM7.87245 177.611C7.94899 177.65 8.03541 177.663 8.11962 177.649C8.20382 177.635 8.28161 177.594 8.34208 177.533C8.40255 177.471 8.44268 177.392 8.45685 177.306C8.47103 177.22 8.45854 177.132 8.42113 177.054C8.38561 176.975 8.32352 176.911 8.24612 176.875C8.16948 176.836 8.08254 176.822 7.99769 176.835C7.91285 176.849 7.83443 176.89 7.77361 176.952C7.7128 177.014 7.67269 177.094 7.65901 177.18C7.64533 177.267 7.65878 177.356 7.69744 177.434C7.73292 177.514 7.7944 177.575 7.87245 177.611Z" fill="#A1AEE5" fill-opacity="0.8"/>
<path d="M41.7499 194.963C41.7879 194.884 41.8009 194.796 41.7871 194.71C41.7733 194.624 41.7333 194.544 41.6729 194.482C41.6125 194.42 41.5346 194.379 41.4502 194.365C41.3658 194.351 41.2791 194.364 41.2024 194.403C41.1245 194.438 41.0622 194.502 41.0274 194.581C40.989 194.659 40.9757 194.748 40.9894 194.834C41.0031 194.921 41.043 195 41.1036 195.062C41.1642 195.124 41.2423 195.165 41.3269 195.179C41.4115 195.193 41.4983 195.179 41.5749 195.14C41.652 195.104 41.7149 195.041 41.7499 194.963ZM295.871 230.682C295.909 230.604 295.922 230.516 295.908 230.43C295.894 230.344 295.854 230.264 295.794 230.203C295.734 230.141 295.656 230.1 295.572 230.086C295.488 230.071 295.402 230.084 295.325 230.122C295.248 230.158 295.186 230.222 295.151 230.301C295.112 230.379 295.099 230.467 295.113 230.554C295.126 230.64 295.166 230.72 295.226 230.782C295.287 230.844 295.365 230.885 295.449 230.899C295.534 230.913 295.621 230.9 295.697 230.861C295.775 230.825 295.836 230.761 295.871 230.682Z" fill="#A1AEE5" fill-opacity="0.4"/>
<path d="M136.807 23.3884C136.845 23.3102 136.858 23.2217 136.844 23.1356C136.831 23.0494 136.791 22.9698 136.73 22.9079C136.67 22.8461 136.592 22.8052 136.508 22.7909C136.423 22.7766 136.336 22.7897 136.26 22.8283C136.182 22.8643 136.121 22.9278 136.086 23.007C136.047 23.0851 136.034 23.1736 136.047 23.26C136.061 23.3464 136.101 23.4262 136.161 23.4882C136.222 23.5502 136.3 23.5911 136.384 23.6053C136.469 23.6195 136.555 23.6061 136.632 23.5671C136.71 23.5312 136.772 23.4677 136.807 23.3884ZM610.781 120.947C610.819 120.869 610.832 120.78 610.818 120.694C610.805 120.608 610.765 120.529 610.704 120.467C610.644 120.405 610.566 120.364 610.482 120.35C610.398 120.336 610.311 120.349 610.235 120.388C610.157 120.424 610.095 120.487 610.06 120.565C610.021 120.644 610.007 120.732 610.021 120.819C610.034 120.906 610.074 120.986 610.135 121.048C610.195 121.11 610.274 121.151 610.358 121.165C610.443 121.179 610.53 121.165 610.607 121.126C610.684 121.089 610.746 121.026 610.781 120.947ZM360.286 -33.1504C360.325 -33.2285 360.338 -33.317 360.325 -33.4034C360.311 -33.4898 360.271 -33.5696 360.211 -33.6316C360.151 -33.6936 360.073 -33.7346 359.988 -33.7487C359.903 -33.7629 359.817 -33.7495 359.74 -33.7105C359.662 -33.6743 359.6 -33.6109 359.565 -33.5318C359.527 -33.4536 359.514 -33.3652 359.528 -33.279C359.542 -33.1928 359.581 -33.1132 359.642 -33.0514C359.702 -32.9895 359.78 -32.9486 359.865 -32.9343C359.949 -32.9201 360.036 -32.9331 360.112 -32.9718C360.19 -33.0078 360.251 -33.0713 360.286 -33.1504ZM237.616 181.739C237.653 181.661 237.666 181.573 237.652 181.487C237.637 181.401 237.597 181.321 237.537 181.26C237.477 181.198 237.399 181.157 237.315 181.143C237.23 181.128 237.144 181.141 237.067 181.179C236.99 181.216 236.928 181.279 236.892 181.358C236.855 181.436 236.842 181.525 236.856 181.611C236.87 181.697 236.91 181.776 236.971 181.838C237.031 181.899 237.109 181.94 237.193 181.955C237.277 181.969 237.364 181.956 237.441 181.918C237.518 181.882 237.58 181.818 237.616 181.739ZM286.273 -23.0159C286.311 -23.0939 286.324 -23.1821 286.31 -23.2679C286.296 -23.3538 286.256 -23.433 286.196 -23.4945C286.136 -23.5561 286.058 -23.5968 285.974 -23.6109C285.89 -23.6251 285.803 -23.612 285.727 -23.5736C285.65 -23.5377 285.588 -23.4747 285.552 -23.3961C285.513 -23.318 285.499 -23.2291 285.512 -23.1423C285.526 -23.0555 285.566 -22.9753 285.626 -22.9132C285.687 -22.8511 285.766 -22.8103 285.851 -22.7966C285.936 -22.783 286.023 -22.7972 286.1 -22.8373C286.177 -22.8732 286.239 -22.9367 286.273 -23.0159Z" fill="#A1AEE5" fill-opacity="0.4"/>
<path d="M-49.2628 134.828C-49.2245 134.75 -49.2113 134.661 -49.2251 134.575C-49.2389 134.488 -49.279 134.409 -49.3396 134.347C-49.4003 134.285 -49.4785 134.244 -49.5631 134.23C-49.6478 134.216 -49.7347 134.229 -49.8114 134.268C-49.8886 134.304 -49.9503 134.368 -49.9853 134.447C-50.0233 134.525 -50.0363 134.613 -50.0225 134.7C-50.0087 134.786 -49.9687 134.865 -49.9083 134.927C-49.8479 134.989 -49.77 135.03 -49.6856 135.044C-49.6012 135.059 -49.5145 135.045 -49.4378 135.007C-49.3602 134.971 -49.298 134.907 -49.2628 134.828ZM194.13 83.7357C194.168 83.6574 194.181 83.569 194.167 83.4828C194.153 83.3966 194.113 83.317 194.053 83.2552C193.992 83.1934 193.914 83.1524 193.83 83.1382C193.746 83.1239 193.659 83.137 193.582 83.1756C193.504 83.2111 193.442 83.2747 193.407 83.3542C193.369 83.4326 193.357 83.521 193.371 83.6072C193.385 83.6933 193.425 83.7729 193.485 83.8345C193.546 83.8962 193.624 83.937 193.708 83.9511C193.793 83.9652 193.879 83.9519 193.956 83.9131C194.033 83.8774 194.095 83.8144 194.13 83.7357ZM475.173 112.871C475.212 112.792 475.225 112.704 475.212 112.618C475.198 112.531 475.158 112.451 475.098 112.389C475.037 112.327 474.959 112.286 474.875 112.272C474.79 112.258 474.703 112.271 474.627 112.31C474.549 112.346 474.488 112.41 474.453 112.489C474.414 112.567 474.401 112.656 474.414 112.742C474.428 112.828 474.468 112.908 474.528 112.97C474.589 113.032 474.667 113.073 474.751 113.087C474.836 113.102 474.923 113.088 474.999 113.049C475.077 113.013 475.138 112.95 475.173 112.871ZM507.694 88.3611C507.733 88.283 507.746 88.1945 507.733 88.1081C507.719 88.0218 507.68 87.9419 507.619 87.8799C507.559 87.818 507.481 87.777 507.396 87.7628C507.312 87.7487 507.225 87.762 507.148 87.801C507.071 87.8371 507.009 87.9006 506.974 87.9797C506.936 88.0578 506.923 88.1461 506.937 88.2322C506.95 88.3183 506.99 88.3979 507.051 88.4596C507.111 88.5214 507.189 88.5622 507.273 88.5764C507.357 88.5905 507.444 88.5773 507.521 88.5386C507.598 88.5029 507.659 88.4398 507.694 88.3611ZM-21.3722 248.117C-21.3345 248.039 -21.3216 247.951 -21.3354 247.865C-21.3492 247.779 -21.389 247.699 -21.4492 247.638C-21.5095 247.576 -21.5871 247.535 -21.6712 247.521C-21.7554 247.506 -21.8418 247.519 -21.9185 247.557C-21.996 247.593 -22.0581 247.657 -22.0935 247.736C-22.1324 247.814 -22.146 247.903 -22.1325 247.989C-22.119 248.076 -22.0791 248.156 -22.0184 248.218C-21.9577 248.28 -21.8794 248.321 -21.7946 248.335C-21.7097 248.349 -21.6228 248.335 -21.546 248.296C-21.469 248.259 -21.4074 248.196 -21.3722 248.117ZM178.825 128.032C178.863 127.954 178.876 127.865 178.862 127.779C178.848 127.693 178.808 127.613 178.748 127.551C178.687 127.489 178.609 127.448 178.524 127.434C178.44 127.42 178.353 127.433 178.276 127.472C178.198 127.509 178.136 127.572 178.101 127.651C178.063 127.729 178.049 127.818 178.063 127.904C178.077 127.991 178.117 128.071 178.178 128.133C178.238 128.195 178.317 128.235 178.401 128.25C178.486 128.264 178.573 128.25 178.65 128.211C178.727 128.175 178.789 128.112 178.825 128.032ZM551.762 315.079C551.8 315.001 551.814 314.912 551.8 314.826C551.787 314.74 551.747 314.66 551.686 314.598C551.626 314.536 551.548 314.495 551.463 314.481C551.379 314.467 551.292 314.48 551.215 314.519C551.138 314.555 551.076 314.619 551.04 314.698C551.002 314.776 550.989 314.864 551.003 314.95C551.017 315.037 551.057 315.116 551.117 315.178C551.178 315.24 551.256 315.281 551.34 315.295C551.424 315.309 551.511 315.296 551.588 315.258C551.665 315.221 551.727 315.158 551.762 315.079ZM122.034 194.694C121.995 194.615 121.982 194.527 121.996 194.44C122.01 194.354 122.05 194.274 122.111 194.212C122.171 194.15 122.249 194.109 122.334 194.095C122.419 194.081 122.506 194.095 122.582 194.134C122.66 194.17 122.721 194.231 122.757 194.312C122.795 194.391 122.808 194.479 122.794 194.565C122.78 194.651 122.74 194.731 122.679 194.793C122.619 194.854 122.541 194.895 122.456 194.909C122.372 194.923 122.285 194.91 122.209 194.871C122.131 194.835 122.069 194.772 122.034 194.694ZM40.6348 281.046C40.5968 280.968 40.5837 280.879 40.5976 280.793C40.6114 280.707 40.6513 280.627 40.7117 280.565C40.7721 280.504 40.85 280.463 40.9344 280.448C41.0189 280.434 41.1055 280.447 41.1823 280.486C41.2599 280.521 41.3219 280.585 41.3561 280.664C41.3942 280.742 41.4073 280.831 41.3936 280.917C41.38 281.003 41.3401 281.083 41.2797 281.144C41.2194 281.206 41.1415 281.247 41.0572 281.261C40.9729 281.275 40.8863 281.262 40.8098 281.223C40.7322 281.188 40.67 281.125 40.6348 281.046ZM-5.00991 147.286C-4.9333 147.247 -4.84655 147.234 -4.76197 147.248C-4.67738 147.262 -4.59925 147.302 -4.53867 147.364C-4.47808 147.426 -4.4381 147.506 -4.42442 147.592C-4.41073 147.678 -4.42402 147.767 -4.46241 147.845C-4.49807 147.924 -4.56017 147.987 -4.63742 148.023C-4.71403 148.061 -4.80048 148.074 -4.88466 148.06C-4.96884 148.045 -5.04654 148.005 -5.10687 147.943C-5.16721 147.881 -5.20718 147.802 -5.22117 147.716C-5.23516 147.63 -5.22249 147.542 -5.18492 147.464C-5.14925 147.385 -5.08716 147.322 -5.00991 147.286Z" fill="#A1AEE5" fill-opacity="0.4"/>
<path d="M444.913 57.435C444.875 57.3568 444.862 57.2684 444.876 57.1822C444.89 57.096 444.93 57.0164 444.99 56.9546C445.051 56.8927 445.128 56.8518 445.213 56.8375C445.297 56.8233 445.384 56.8363 445.461 56.875C445.538 56.9104 445.6 56.9741 445.634 57.0536C445.673 57.1317 445.686 57.22 445.672 57.3061C445.658 57.3922 445.618 57.4718 445.558 57.5335C445.498 57.5953 445.42 57.6361 445.336 57.6503C445.251 57.6644 445.165 57.6512 445.088 57.6125C445.011 57.5766 444.949 57.5136 444.913 57.435ZM425.883 66.0462C425.845 65.968 425.832 65.8795 425.846 65.7934C425.86 65.7072 425.9 65.6276 425.96 65.5657C426.021 65.5039 426.098 65.463 426.183 65.4487C426.267 65.4344 426.354 65.4475 426.431 65.4861C426.508 65.5223 426.57 65.5857 426.606 65.6648C426.644 65.7432 426.657 65.8318 426.643 65.9182C426.629 66.0047 426.589 66.0845 426.529 66.1464C426.468 66.2083 426.39 66.2492 426.305 66.2633C426.221 66.2774 426.134 66.2639 426.057 66.2249C425.98 66.1889 425.918 66.1254 425.883 66.0462ZM-18.0964 336.882C-18.1343 336.804 -18.1474 336.715 -18.1336 336.629C-18.1197 336.543 -18.0798 336.464 -18.0194 336.402C-17.959 336.34 -17.8811 336.299 -17.7967 336.285C-17.7123 336.27 -17.6256 336.284 -17.5489 336.322C-17.4715 336.358 -17.4094 336.422 -17.3738 336.501C-17.3356 336.579 -17.3224 336.668 -17.3362 336.754C-17.35 336.841 -17.3901 336.92 -17.4507 336.982C-17.5114 337.044 -17.5896 337.085 -17.6742 337.099C-17.7589 337.113 -17.8457 337.1 -17.9225 337.061C-17.9999 337.025 -18.062 336.961 -18.0975 336.882H-18.0964ZM52.9177 237.557C52.8798 237.478 52.8668 237.39 52.8806 237.304C52.8944 237.218 52.9343 237.138 52.9947 237.076C53.0551 237.014 53.133 236.973 53.2174 236.959C53.3018 236.945 53.3885 236.958 53.4653 236.997C53.5422 237.033 53.6039 237.096 53.6391 237.175C53.6779 237.253 53.6915 237.342 53.678 237.429C53.6646 237.515 53.6246 237.595 53.5639 237.657C53.5032 237.72 53.4249 237.76 53.3401 237.774C53.2553 237.788 53.1683 237.775 53.0916 237.735C53.0146 237.699 52.9529 237.635 52.9177 237.557ZM484.231 72.5825C484.193 72.5041 484.18 72.4154 484.194 72.329C484.208 72.2426 484.248 72.1628 484.308 72.1009C484.369 72.039 484.447 71.9981 484.532 71.984C484.616 71.9699 484.703 71.9833 484.78 72.0224C484.858 72.0586 484.92 72.122 484.955 72.201C484.993 72.2794 485.007 72.3681 484.993 72.4545C484.979 72.5409 484.939 72.6207 484.878 72.6826C484.818 72.7445 484.739 72.7854 484.655 72.7995C484.57 72.8136 484.483 72.8002 484.406 72.7611C484.329 72.7249 484.267 72.6615 484.231 72.5825ZM0.668806 225.028C0.630686 224.95 0.617548 224.862 0.631245 224.776C0.644943 224.69 0.684786 224.61 0.74515 224.549C0.805513 224.487 0.88335 224.446 0.967676 224.432C1.052 224.418 1.13855 224.431 1.21512 224.47C1.29317 224.506 1.35348 224.567 1.38895 224.647C1.42751 224.725 1.44098 224.814 1.42748 224.9C1.41397 224.986 1.37417 225.066 1.31371 225.128C1.25325 225.19 1.17521 225.231 1.09066 225.245C1.0061 225.26 0.919323 225.246 0.842634 225.207C0.76474 225.172 0.703608 225.108 0.668806 225.028ZM238.786 66.4747C238.748 66.3964 238.735 66.3079 238.749 66.2218C238.763 66.1356 238.804 66.0561 238.864 65.9944C238.925 65.9327 239.003 65.892 239.087 65.8779C239.172 65.8638 239.258 65.8771 239.335 65.9159C239.412 65.9513 239.474 66.015 239.509 66.0945C239.546 66.1727 239.559 66.261 239.545 66.3469C239.531 66.4328 239.491 66.5121 239.431 66.5737C239.37 66.6353 239.293 66.6761 239.208 66.6904C239.124 66.7047 239.038 66.6917 238.961 66.6534C238.883 66.6179 238.821 66.5542 238.786 66.4747ZM196.391 114.144C196.353 114.066 196.34 113.977 196.354 113.891C196.368 113.805 196.408 113.725 196.468 113.664C196.528 113.602 196.606 113.561 196.691 113.547C196.775 113.532 196.862 113.545 196.938 113.584C197.016 113.62 197.077 113.684 197.112 113.763C197.151 113.841 197.164 113.929 197.151 114.016C197.137 114.102 197.098 114.182 197.037 114.244C196.977 114.306 196.899 114.347 196.814 114.361C196.729 114.375 196.643 114.362 196.566 114.323C196.488 114.287 196.426 114.223 196.391 114.144ZM272.344 114.377C272.306 114.299 272.293 114.21 272.307 114.124C272.321 114.038 272.361 113.958 272.421 113.897C272.482 113.835 272.56 113.794 272.644 113.78C272.729 113.765 272.815 113.778 272.892 113.817C272.971 113.853 273.031 113.916 273.067 113.996C273.105 114.074 273.118 114.162 273.104 114.248C273.09 114.335 273.05 114.414 272.99 114.476C272.93 114.538 272.852 114.579 272.767 114.593C272.683 114.607 272.596 114.594 272.519 114.556C272.442 114.52 272.379 114.456 272.344 114.377Z" fill="#A1AEE5" fill-opacity="0.4"/>
<path d="M47.957 20.273C47.9196 20.1949 47.9071 20.1069 47.9211 20.0212C47.9351 19.9355 47.9749 19.8564 48.0351 19.7949C48.0952 19.7334 48.1726 19.6926 48.2565 19.6781C48.3404 19.6636 48.4267 19.6762 48.5033 19.7141C48.5813 19.7503 48.6416 19.8119 48.6783 19.8916C48.7171 19.9698 48.7307 20.0585 48.7172 20.1452C48.7038 20.2318 48.6638 20.3118 48.6031 20.3739C48.5424 20.436 48.4641 20.4769 48.3793 20.4909C48.2945 20.5048 48.2075 20.4911 48.1308 20.4516C48.0536 20.4154 47.9919 20.352 47.957 20.273ZM521.679 241.354C521.641 241.276 521.628 241.187 521.642 241.101C521.655 241.015 521.695 240.935 521.756 240.873C521.816 240.812 521.894 240.771 521.978 240.756C522.063 240.742 522.15 240.755 522.226 240.794C522.303 240.83 522.365 240.893 522.4 240.972C522.438 241.05 522.451 241.139 522.438 241.225C522.424 241.311 522.384 241.391 522.324 241.452C522.263 241.514 522.186 241.555 522.101 241.569C522.017 241.583 521.93 241.57 521.854 241.531C521.776 241.496 521.714 241.433 521.679 241.354ZM493.945 230.878C493.907 230.8 493.893 230.711 493.907 230.625C493.92 230.538 493.96 230.459 494.021 230.397C494.081 230.335 494.159 230.294 494.244 230.279C494.328 230.265 494.415 230.279 494.492 230.318C494.57 230.354 494.63 230.415 494.667 230.496C494.704 230.575 494.717 230.663 494.703 230.749C494.689 230.835 494.649 230.914 494.589 230.976C494.528 231.037 494.451 231.078 494.367 231.092C494.282 231.106 494.196 231.094 494.119 231.055C494.042 231.02 493.98 230.957 493.945 230.878Z" fill="#A1AEE5" fill-opacity="0.4"/>
<path d="M537.511 115.789C537.474 115.711 537.461 115.623 537.475 115.537C537.489 115.452 537.529 115.372 537.589 115.311C537.649 115.249 537.727 115.209 537.811 115.194C537.895 115.18 537.981 115.192 538.057 115.23C538.135 115.266 538.197 115.33 538.232 115.409C538.271 115.487 538.284 115.576 538.27 115.662C538.257 115.748 538.217 115.828 538.156 115.89C538.096 115.952 538.018 115.993 537.933 116.007C537.848 116.021 537.762 116.007 537.685 115.968C537.608 115.932 537.546 115.868 537.511 115.789ZM595.357 347.293C595.319 347.215 595.305 347.126 595.319 347.04C595.333 346.953 595.373 346.873 595.434 346.811C595.494 346.749 595.573 346.709 595.657 346.694C595.742 346.68 595.829 346.694 595.906 346.733C595.983 346.769 596.044 346.833 596.079 346.912C596.117 346.99 596.13 347.078 596.117 347.164C596.103 347.251 596.063 347.33 596.002 347.392C595.942 347.454 595.864 347.495 595.78 347.509C595.695 347.523 595.609 347.51 595.532 347.472C595.454 347.436 595.392 347.372 595.357 347.293ZM584.548 133.755C584.509 133.677 584.495 133.588 584.509 133.501C584.522 133.415 584.562 133.335 584.623 133.273C584.683 133.211 584.762 133.17 584.847 133.156C584.931 133.142 585.018 133.156 585.095 133.195C585.172 133.232 585.234 133.295 585.269 133.374C585.307 133.452 585.32 133.54 585.306 133.626C585.292 133.713 585.252 133.792 585.192 133.854C585.132 133.916 585.054 133.957 584.969 133.971C584.885 133.985 584.798 133.972 584.721 133.934C584.644 133.897 584.583 133.834 584.548 133.755ZM-2.8932 286.546C-2.93132 286.468 -2.94446 286.38 -2.93076 286.294C-2.91706 286.208 -2.87722 286.128 -2.81686 286.066C-2.75649 286.005 -2.67865 285.964 -2.59433 285.95C-2.51 285.935 -2.42345 285.949 -2.34688 285.987C-2.26883 286.024 -2.20853 286.085 -2.17187 286.165C-2.13305 286.243 -2.11941 286.332 -2.13291 286.418C-2.1464 286.505 -2.18634 286.585 -2.24702 286.647C-2.30771 286.709 -2.38604 286.75 -2.47086 286.764C-2.55567 286.778 -2.64265 286.764 -2.71937 286.725C-2.79638 286.689 -2.85806 286.625 -2.8932 286.546Z" fill="#A1AEE5" fill-opacity="0.4"/>
<path d="M440.357 174.684C440.396 174.606 440.409 174.518 440.396 174.431C440.382 174.345 440.342 174.265 440.282 174.203C440.222 174.141 440.143 174.1 440.059 174.086C439.974 174.072 439.888 174.085 439.811 174.124C439.734 174.161 439.672 174.224 439.636 174.303C439.598 174.381 439.585 174.469 439.599 174.556C439.613 174.642 439.652 174.721 439.713 174.783C439.773 174.845 439.851 174.886 439.936 174.9C440.02 174.915 440.107 174.901 440.183 174.863C440.261 174.827 440.322 174.763 440.357 174.684ZM405.462 73.8872C405.499 73.809 405.512 73.7208 405.498 73.6349C405.485 73.5489 405.445 73.4695 405.385 73.4078C405.324 73.3461 405.247 73.3051 405.163 73.2906C405.078 73.2762 404.992 73.2889 404.915 73.3271C404.838 73.3636 404.776 73.4269 404.74 73.5057C404.702 73.584 404.689 73.6724 404.703 73.7586C404.717 73.8448 404.757 73.9244 404.817 73.9862C404.878 74.048 404.955 74.089 405.04 74.1032C405.124 74.1175 405.211 74.1044 405.288 74.0658C405.365 74.0296 405.427 73.9661 405.462 73.8872ZM466.021 98.3543C466.059 98.276 466.072 98.1875 466.058 98.1014C466.044 98.0152 466.004 97.9357 465.943 97.874C465.883 97.8123 465.805 97.7716 465.72 97.7575C465.636 97.7434 465.549 97.7567 465.472 97.7955C465.395 97.8309 465.333 97.8946 465.299 97.9741C465.261 98.0523 465.248 98.1405 465.262 98.2265C465.276 98.3124 465.316 98.3917 465.377 98.4533C465.437 98.5149 465.515 98.5557 465.599 98.57C465.683 98.5843 465.769 98.5713 465.846 98.533C465.924 98.4974 465.986 98.4338 466.021 98.3543ZM265.273 146.848C265.312 146.77 265.326 146.681 265.312 146.594C265.299 146.508 265.259 146.428 265.198 146.366C265.137 146.304 265.059 146.263 264.974 146.249C264.889 146.235 264.803 146.249 264.726 146.288C264.649 146.324 264.587 146.388 264.552 146.467C264.514 146.545 264.501 146.633 264.515 146.719C264.529 146.805 264.569 146.884 264.629 146.946C264.689 147.008 264.767 147.049 264.851 147.063C264.935 147.078 265.022 147.065 265.098 147.027C265.176 146.99 265.237 146.927 265.273 146.848ZM401.605 206.026C401.644 205.947 401.658 205.859 401.644 205.772C401.631 205.685 401.591 205.605 401.53 205.543C401.47 205.481 401.391 205.44 401.306 205.426C401.222 205.412 401.135 205.426 401.058 205.465C400.98 205.501 400.919 205.565 400.884 205.644C400.846 205.722 400.833 205.811 400.846 205.897C400.86 205.983 400.9 206.062 400.96 206.124C401.021 206.186 401.099 206.227 401.183 206.241C401.267 206.255 401.354 206.242 401.43 206.203C401.508 206.167 401.57 206.104 401.605 206.026ZM528.825 219.997C528.863 219.919 528.876 219.831 528.863 219.745C528.849 219.659 528.809 219.579 528.749 219.517C528.688 219.456 528.611 219.415 528.526 219.401C528.442 219.386 528.355 219.4 528.279 219.438C528.202 219.474 528.14 219.537 528.105 219.616C528.066 219.694 528.053 219.783 528.066 219.869C528.08 219.955 528.12 220.035 528.18 220.097C528.241 220.159 528.319 220.2 528.403 220.214C528.488 220.228 528.575 220.215 528.651 220.176C528.729 220.14 528.791 220.077 528.825 219.997Z" fill="#A1AEE5" fill-opacity="0.4"/>
<path d="M227.684 67.9446C227.723 67.8664 227.737 67.7777 227.723 67.6911C227.71 67.6044 227.67 67.5244 227.609 67.4623C227.548 67.4002 227.47 67.3593 227.385 67.3453C227.3 67.3314 227.213 67.3451 227.137 67.3846C227.059 67.42 226.997 67.4837 226.963 67.5632C226.925 67.6413 226.911 67.7296 226.925 67.8157C226.939 67.9018 226.979 67.9814 227.039 68.0431C227.099 68.1049 227.177 68.1457 227.262 68.1599C227.346 68.174 227.432 68.1608 227.509 68.1221C227.586 68.0864 227.649 68.0234 227.684 67.9446Z" fill="#A1AEE5" fill-opacity="0.8"/>
<path d="M223.646 178.1C223.684 178.022 223.697 177.933 223.683 177.848C223.669 177.762 223.63 177.682 223.569 177.62C223.509 177.559 223.432 177.518 223.347 177.503C223.263 177.489 223.177 177.502 223.1 177.54C223.023 177.576 222.961 177.64 222.925 177.718C222.887 177.797 222.874 177.885 222.888 177.971C222.902 178.057 222.942 178.137 223.002 178.199C223.062 178.261 223.14 178.302 223.225 178.316C223.309 178.33 223.396 178.317 223.473 178.278C223.55 178.242 223.611 178.179 223.646 178.1ZM370.221 81.4515C370.259 81.3734 370.272 81.2853 370.258 81.1995C370.244 81.1136 370.204 81.0344 370.144 80.9729C370.084 80.9113 370.006 80.8706 369.922 80.8565C369.838 80.8423 369.751 80.8553 369.675 80.8938C369.598 80.9293 369.536 80.9924 369.501 81.0713C369.462 81.1493 369.448 81.238 369.462 81.3245C369.475 81.411 369.515 81.491 369.576 81.553C369.636 81.615 369.715 81.6559 369.799 81.6697C369.884 81.6836 369.971 81.6697 370.047 81.6301C370.125 81.5939 370.186 81.5305 370.221 81.4515ZM314.725 231.083C314.763 231.004 314.775 230.916 314.761 230.83C314.747 230.744 314.707 230.665 314.647 230.603C314.587 230.542 314.509 230.501 314.425 230.487C314.341 230.472 314.254 230.485 314.178 230.524C314.1 230.559 314.039 230.622 314.004 230.701C313.965 230.779 313.952 230.868 313.965 230.954C313.979 231.041 314.019 231.12 314.079 231.182C314.14 231.244 314.218 231.285 314.302 231.3C314.387 231.314 314.473 231.3 314.55 231.261C314.628 231.226 314.69 231.162 314.725 231.083ZM469.872 124.92C469.796 124.881 469.709 124.867 469.624 124.881C469.54 124.895 469.461 124.935 469.401 124.997C469.34 125.059 469.3 125.138 469.286 125.225C469.272 125.311 469.285 125.4 469.323 125.478C469.359 125.558 469.419 125.619 469.498 125.657C469.575 125.695 469.661 125.708 469.746 125.694C469.83 125.679 469.907 125.638 469.968 125.577C470.028 125.515 470.068 125.436 470.082 125.35C470.096 125.264 470.083 125.176 470.046 125.098C470.011 125.019 469.949 124.956 469.872 124.92ZM179.12 116.805C179.158 116.727 179.171 116.639 179.157 116.553C179.143 116.467 179.104 116.388 179.043 116.326C178.983 116.264 178.905 116.223 178.821 116.209C178.737 116.194 178.651 116.207 178.574 116.245C178.497 116.282 178.435 116.345 178.399 116.424C178.361 116.502 178.348 116.59 178.362 116.677C178.376 116.763 178.416 116.842 178.476 116.904C178.536 116.966 178.614 117.007 178.699 117.021C178.783 117.036 178.87 117.022 178.947 116.984C179.024 116.948 179.085 116.884 179.12 116.805ZM211.639 92.2957C211.678 92.2176 211.691 92.1291 211.678 92.0427C211.664 91.9564 211.624 91.8765 211.564 91.8145C211.503 91.7526 211.425 91.7116 211.341 91.6974C211.256 91.6833 211.17 91.6966 211.093 91.7357C211.016 91.7722 210.954 91.8355 210.918 91.9143C210.88 91.9925 210.867 92.081 210.881 92.1672C210.894 92.2534 210.934 92.333 210.995 92.3948C211.055 92.4566 211.133 92.4975 211.218 92.5118C211.302 92.5261 211.389 92.513 211.465 92.4744C211.543 92.4382 211.604 92.3747 211.639 92.2957ZM438.701 227.814C438.739 227.736 438.752 227.647 438.738 227.561C438.724 227.475 438.684 227.395 438.623 227.334C438.563 227.272 438.485 227.231 438.4 227.217C438.316 227.203 438.229 227.216 438.153 227.255C438.075 227.291 438.013 227.354 437.978 227.432C437.939 227.511 437.926 227.6 437.94 227.686C437.954 227.772 437.994 227.852 438.054 227.914C438.115 227.976 438.193 228.017 438.278 228.031C438.363 228.045 438.449 228.032 438.526 227.993C438.604 227.957 438.666 227.893 438.701 227.814Z" fill="#A1AEE5" fill-opacity="0.4"/>
<path d="M275.505 86.9862C275.467 86.908 275.453 86.8192 275.466 86.7326C275.48 86.646 275.52 86.566 275.581 86.5039C275.641 86.4418 275.72 86.4009 275.804 86.3869C275.889 86.3729 275.976 86.3867 276.053 86.4261C276.131 86.4616 276.193 86.5253 276.227 86.6048C276.265 86.6828 276.278 86.7712 276.264 86.8573C276.251 86.9434 276.211 87.0229 276.15 87.0847C276.09 87.1464 276.012 87.1873 275.928 87.2015C275.844 87.2156 275.757 87.2024 275.68 87.1636C275.603 87.1279 275.541 87.065 275.505 86.9862Z" fill="#A1AEE5" fill-opacity="0.8"/>
<path d="M503.691 146.202C503.614 146.241 503.528 146.254 503.443 146.24C503.359 146.226 503.281 146.185 503.22 146.124C503.16 146.062 503.12 145.983 503.106 145.896C503.092 145.81 503.105 145.722 503.142 145.643C503.178 145.565 503.24 145.502 503.317 145.466C503.394 145.427 503.481 145.414 503.565 145.428C503.65 145.442 503.728 145.483 503.788 145.545C503.849 145.606 503.889 145.686 503.903 145.772C503.917 145.858 503.904 145.947 503.866 146.025C503.83 146.103 503.768 146.166 503.691 146.202ZM188.176 76.5173C188.138 76.4389 188.125 76.3503 188.139 76.2639C188.153 76.1774 188.193 76.0976 188.253 76.0357C188.314 75.9738 188.392 75.9329 188.477 75.9188C188.562 75.9047 188.648 75.9182 188.725 75.9572C188.803 75.9931 188.864 76.0567 188.899 76.1359C188.937 76.2141 188.951 76.3026 188.937 76.389C188.923 76.4753 188.883 76.5551 188.823 76.6169C188.762 76.6787 188.684 76.7196 188.599 76.7335C188.515 76.7475 188.428 76.7339 188.352 76.6948C188.274 76.6591 188.212 76.5961 188.176 76.5173ZM338.885 192.876C338.847 192.798 338.833 192.709 338.846 192.623C338.86 192.536 338.899 192.456 338.96 192.394C339.021 192.332 339.099 192.291 339.184 192.277C339.268 192.263 339.355 192.277 339.432 192.317C339.51 192.353 339.572 192.416 339.607 192.496C339.645 192.574 339.658 192.662 339.644 192.748C339.63 192.834 339.59 192.914 339.529 192.975C339.469 193.037 339.391 193.078 339.307 193.092C339.222 193.106 339.136 193.092 339.059 193.053C338.982 193.017 338.921 192.954 338.885 192.876Z" fill="#A1AEE5" fill-opacity="0.4"/>
<path d="M283.838 108.635C283.801 108.556 283.788 108.468 283.803 108.382C283.817 108.296 283.857 108.217 283.917 108.155C283.977 108.093 284.055 108.052 284.139 108.038C284.224 108.024 284.31 108.036 284.387 108.075C284.464 108.111 284.526 108.174 284.562 108.253C284.6 108.332 284.614 108.42 284.6 108.507C284.586 108.593 284.546 108.673 284.485 108.735C284.425 108.797 284.346 108.838 284.262 108.852C284.177 108.866 284.09 108.852 284.013 108.813C283.936 108.777 283.874 108.714 283.838 108.635Z" fill="#A1AEE5" fill-opacity="0.8"/>
<path d="M241.456 225.926C241.417 225.848 241.404 225.76 241.417 225.673C241.431 225.587 241.47 225.507 241.531 225.445C241.591 225.383 241.669 225.342 241.754 225.328C241.838 225.314 241.925 225.327 242.002 225.366C242.08 225.402 242.141 225.466 242.176 225.545C242.215 225.623 242.228 225.712 242.215 225.798C242.202 225.885 242.162 225.965 242.101 226.027C242.041 226.089 241.962 226.13 241.878 226.144C241.793 226.157 241.706 226.144 241.629 226.104C241.552 226.068 241.49 226.005 241.456 225.926ZM288.494 243.891C288.456 243.813 288.442 243.725 288.456 243.638C288.469 243.552 288.509 243.472 288.57 243.41C288.63 243.348 288.708 243.307 288.793 243.293C288.877 243.279 288.964 243.292 289.041 243.331C289.118 243.368 289.18 243.431 289.216 243.51C289.254 243.588 289.267 243.676 289.253 243.763C289.239 243.849 289.199 243.928 289.139 243.99C289.078 244.052 289 244.093 288.916 244.107C288.832 244.122 288.745 244.108 288.668 244.07C288.591 244.034 288.529 243.97 288.494 243.891ZM199.33 240.719C199.292 240.641 199.28 240.553 199.294 240.467C199.308 240.381 199.348 240.301 199.408 240.24C199.468 240.178 199.546 240.137 199.63 240.123C199.714 240.109 199.801 240.122 199.878 240.16C199.955 240.196 200.016 240.259 200.051 240.338C200.09 240.416 200.104 240.504 200.091 240.591C200.077 240.677 200.037 240.757 199.977 240.819C199.916 240.881 199.838 240.922 199.753 240.936C199.668 240.95 199.582 240.936 199.505 240.896C199.428 240.86 199.366 240.798 199.33 240.719ZM350.767 328.272C350.729 328.194 350.716 328.105 350.73 328.019C350.744 327.932 350.784 327.852 350.844 327.791C350.905 327.729 350.983 327.688 351.068 327.674C351.152 327.66 351.239 327.673 351.316 327.712C351.394 327.748 351.454 327.81 351.491 327.891C351.529 327.969 351.542 328.058 351.528 328.144C351.514 328.23 351.474 328.309 351.413 328.371C351.353 328.433 351.275 328.473 351.19 328.488C351.106 328.502 351.019 328.488 350.942 328.45C350.865 328.414 350.803 328.351 350.767 328.272ZM554.416 230.212C554.339 230.251 554.253 230.265 554.168 230.251C554.083 230.237 554.005 230.196 553.945 230.135C553.884 230.073 553.844 229.993 553.83 229.907C553.816 229.821 553.829 229.732 553.867 229.654C553.903 229.575 553.965 229.511 554.042 229.475C554.119 229.437 554.205 229.424 554.289 229.438C554.374 229.453 554.451 229.493 554.512 229.555C554.572 229.617 554.612 229.696 554.626 229.782C554.64 229.868 554.627 229.956 554.59 230.034C554.555 230.113 554.493 230.176 554.416 230.212ZM14.9457 257.98C14.9072 257.902 14.8937 257.813 14.9072 257.727C14.9207 257.641 14.9605 257.561 15.021 257.499C15.0814 257.437 15.1595 257.396 15.244 257.382C15.3286 257.368 15.4154 257.381 15.492 257.42C15.5695 257.456 15.6316 257.52 15.6671 257.599C15.705 257.677 15.7181 257.765 15.7043 257.852C15.6905 257.938 15.6505 258.017 15.5901 258.079C15.5297 258.141 15.4518 258.182 15.3674 258.196C15.283 258.21 15.1963 258.197 15.1196 258.159C15.0425 258.122 14.9809 258.059 14.9457 257.98ZM176.789 347.568C176.751 347.49 176.737 347.402 176.751 347.315C176.764 347.229 176.804 347.149 176.864 347.087C176.925 347.025 177.003 346.984 177.087 346.97C177.172 346.956 177.259 346.969 177.335 347.008C177.413 347.045 177.475 347.108 177.51 347.187C177.548 347.265 177.561 347.354 177.548 347.44C177.534 347.526 177.494 347.605 177.434 347.667C177.373 347.729 177.295 347.77 177.211 347.784C177.126 347.799 177.04 347.786 176.963 347.747C176.886 347.711 176.824 347.647 176.789 347.568ZM82.7103 281.939C82.6719 281.861 82.6586 281.772 82.6723 281.686C82.686 281.6 82.726 281.52 82.7866 281.458C82.8472 281.396 82.9253 281.355 83.0099 281.341C83.0945 281.327 83.1812 281.341 83.2578 281.38C83.3359 281.416 83.3962 281.478 83.4316 281.558C83.4694 281.636 83.4822 281.724 83.4684 281.81C83.4546 281.896 83.4148 281.975 83.3546 282.037C83.2944 282.099 83.2168 282.14 83.1326 282.154C83.0485 282.169 82.962 282.156 82.8853 282.118C82.8076 282.082 82.7454 282.018 82.7103 281.939ZM175.881 280.227C175.843 280.149 175.829 280.061 175.843 279.974C175.857 279.888 175.897 279.808 175.957 279.746C176.018 279.685 176.096 279.644 176.181 279.63C176.265 279.616 176.352 279.629 176.428 279.669C176.507 279.705 176.567 279.766 176.602 279.846C176.64 279.924 176.653 280.012 176.639 280.098C176.625 280.184 176.585 280.264 176.525 280.325C176.465 280.387 176.387 280.428 176.303 280.443C176.219 280.457 176.133 280.444 176.056 280.406C175.978 280.37 175.916 280.307 175.881 280.227ZM121.657 329.81C121.619 329.732 121.606 329.643 121.62 329.557C121.633 329.47 121.673 329.39 121.734 329.328C121.795 329.266 121.873 329.226 121.958 329.211C122.042 329.197 122.129 329.211 122.206 329.25C122.283 329.286 122.345 329.35 122.381 329.429C122.418 329.507 122.431 329.595 122.417 329.681C122.403 329.767 122.363 329.847 122.302 329.908C122.242 329.97 122.164 330.011 122.08 330.025C121.996 330.04 121.909 330.027 121.832 329.989C121.755 329.952 121.693 329.889 121.657 329.81ZM413.43 91.9546C413.467 91.8763 413.48 91.7879 413.467 91.7017C413.453 91.6155 413.413 91.5359 413.353 91.4741C413.292 91.4123 413.214 91.3713 413.13 91.3571C413.045 91.3428 412.959 91.3559 412.882 91.3945C412.805 91.4304 412.743 91.494 412.708 91.5731C412.67 91.6512 412.656 91.7398 412.67 91.8261C412.683 91.9125 412.723 91.9923 412.783 92.0543C412.844 92.1163 412.922 92.1573 413.006 92.1714C413.091 92.1856 413.178 92.1722 413.254 92.1332C413.332 92.0969 413.394 92.0336 413.43 91.9546Z" fill="#A1AEE5" fill-opacity="0.4"/>
<path d="M389.273 58.9029C389.311 58.8247 389.324 58.7365 389.31 58.6505C389.296 58.5646 389.256 58.4853 389.195 58.4237C389.135 58.3621 389.057 58.3213 388.973 58.307C388.889 58.2928 388.803 58.3057 388.726 58.3441C388.649 58.3795 388.587 58.4427 388.552 58.5215C388.514 58.5996 388.5 58.6881 388.514 58.7745C388.527 58.8609 388.567 58.9407 388.627 59.0027C388.688 59.0647 388.766 59.1057 388.85 59.1198C388.935 59.134 389.022 59.1206 389.098 59.0816C389.176 59.046 389.239 58.9824 389.273 58.9029Z" fill="#A1AEE5" fill-opacity="0.8"/>
<path d="M312.863 20.2549C312.825 20.1766 312.812 20.0882 312.826 20.002C312.839 19.9158 312.879 19.8362 312.94 19.7744C313 19.7126 313.078 19.6716 313.163 19.6574C313.247 19.6431 313.334 19.6562 313.41 19.6948C313.488 19.731 313.549 19.7926 313.584 19.8722C313.623 19.9503 313.636 20.0389 313.623 20.1252C313.609 20.2116 313.569 20.2914 313.509 20.3534C313.448 20.4154 313.37 20.4564 313.286 20.4705C313.201 20.4847 313.115 20.4713 313.038 20.4323C312.96 20.396 312.898 20.3339 312.863 20.2549ZM378.506 23.3932C378.468 23.3149 378.455 23.2264 378.469 23.1403C378.483 23.0541 378.523 22.9746 378.584 22.9129C378.645 22.8512 378.723 22.8105 378.807 22.7964C378.891 22.7823 378.978 22.7956 379.055 22.8344C379.132 22.8705 379.194 22.9339 379.23 23.013C379.268 23.0914 379.281 23.18 379.267 23.2664C379.254 23.3529 379.213 23.4327 379.153 23.4946C379.092 23.5565 379.014 23.5974 378.929 23.6115C378.845 23.6256 378.758 23.6121 378.681 23.5731C378.604 23.5368 378.542 23.4722 378.506 23.3932ZM418.343 46.5749C418.305 46.4966 418.291 46.4079 418.304 46.3213C418.318 46.2347 418.358 46.1546 418.419 46.0925C418.479 46.0305 418.558 45.9895 418.642 45.9756C418.727 45.9616 418.814 45.9753 418.891 46.0148C418.969 46.0503 419.03 46.1139 419.065 46.1934C419.103 46.2715 419.116 46.3598 419.102 46.4459C419.089 46.532 419.049 46.6116 418.988 46.6733C418.928 46.7351 418.85 46.7759 418.766 46.7901C418.682 46.8043 418.595 46.7911 418.518 46.7523C418.441 46.7166 418.379 46.6536 418.343 46.5749Z" fill="#A1AEE5" fill-opacity="0.4"/>
<path d="M340.24 42.4648C340.202 42.3865 340.189 42.2981 340.202 42.2119C340.216 42.1257 340.256 42.0461 340.317 41.9843C340.377 41.9225 340.455 41.8815 340.539 41.8673C340.624 41.853 340.71 41.8661 340.787 41.9047C340.864 41.9409 340.926 42.0043 340.961 42.0833C340.999 42.1614 341.013 42.25 340.999 42.3363C340.986 42.4227 340.946 42.5025 340.886 42.5645C340.825 42.6265 340.747 42.6675 340.663 42.6816C340.578 42.6958 340.491 42.6824 340.415 42.6434C340.337 42.6069 340.275 42.5436 340.24 42.4648Z" fill="#A1AEE5" fill-opacity="0.8"/>
<path d="M415.124 16.163C415.086 16.0849 415.073 15.9966 415.087 15.9105C415.1 15.8244 415.14 15.7448 415.201 15.6831C415.261 15.6213 415.339 15.5805 415.423 15.5663C415.507 15.5521 415.594 15.5654 415.671 15.6041C415.748 15.6403 415.81 15.7037 415.846 15.7827C415.883 15.8609 415.896 15.9492 415.882 16.0351C415.868 16.121 415.828 16.2004 415.768 16.2619C415.707 16.3235 415.63 16.3643 415.545 16.3786C415.461 16.3929 415.375 16.38 415.298 16.3416C415.221 16.306 415.159 16.2417 415.124 16.163ZM359.992 -1.59414C359.954 -1.6725 359.941 -1.76117 359.955 -1.84759C359.969 -1.93401 360.009 -2.01381 360.069 -2.07573C360.13 -2.13764 360.208 -2.17854 360.293 -2.19262C360.377 -2.2067 360.464 -2.19327 360.541 -2.15422C360.619 -2.11801 360.679 -2.05524 360.715 -1.97557C360.753 -1.89736 360.765 -1.80912 360.751 -1.72319C360.737 -1.63727 360.697 -1.55796 360.637 -1.49636C360.577 -1.43477 360.499 -1.39398 360.415 -1.37969C360.331 -1.36541 360.244 -1.37835 360.167 -1.4167C360.09 -1.45193 360.027 -1.51508 359.992 -1.59414Z" fill="#A1AEE5" fill-opacity="0.4"/>
<path d="M93.6814 79.6099C93.6438 79.5319 93.631 79.4438 93.6448 79.3579C93.6587 79.2721 93.6986 79.1928 93.7589 79.1313C93.8191 79.0698 93.8968 79.0291 93.9809 79.0149C94.065 79.0007 94.1513 79.0138 94.2278 79.0523C94.305 79.0881 94.3671 79.1511 94.4028 79.2297C94.442 79.3079 94.4559 79.3967 94.4426 79.4835C94.4292 79.5703 94.3892 79.6505 94.3284 79.7126C94.2675 79.7747 94.1889 79.8155 94.1039 79.8292C94.0189 79.8428 93.9319 79.8286 93.8553 79.7886C93.778 79.7526 93.7161 79.6891 93.6814 79.6099ZM7.23567 64.3611C7.19784 64.2828 7.18501 64.1943 7.199 64.1082C7.21299 64.022 7.25308 63.9425 7.31364 63.8808C7.37421 63.8191 7.45219 63.7784 7.53662 63.7643C7.62106 63.7502 7.7077 63.7634 7.78435 63.8022C7.8624 63.8384 7.9227 63.9 7.95936 63.9809C7.99719 64.0592 8.01001 64.1477 7.99603 64.2338C7.98204 64.32 7.94195 64.3995 7.88139 64.4612C7.82082 64.5229 7.74284 64.5636 7.6584 64.5777C7.57397 64.5918 7.48733 64.5785 7.41068 64.5397C7.3331 64.5038 7.27092 64.4403 7.23567 64.3611ZM6.89392 96.8854C6.85537 96.8073 6.84189 96.7188 6.8554 96.6324C6.8689 96.546 6.90871 96.4662 6.96916 96.4042C7.02962 96.3422 7.10766 96.3013 7.19222 96.2871C7.27678 96.2729 7.36355 96.2863 7.44024 96.3253C7.5177 96.3615 7.57981 96.4249 7.61525 96.504C7.65325 96.5822 7.66626 96.6707 7.65245 96.7569C7.63865 96.843 7.59872 96.9226 7.53829 96.9845C7.47786 97.0463 7.39996 97.0872 7.31556 97.1015C7.23115 97.1158 7.14449 97.1027 7.06775 97.0641C6.99055 97.0279 6.9288 96.9645 6.89392 96.8854ZM140.554 102.639C140.515 102.561 140.501 102.473 140.515 102.386C140.528 102.299 140.568 102.219 140.629 102.157C140.689 102.095 140.768 102.054 140.853 102.04C140.937 102.026 141.024 102.04 141.101 102.079C141.179 102.116 141.239 102.178 141.275 102.258C141.313 102.336 141.325 102.424 141.312 102.51C141.298 102.596 141.258 102.676 141.198 102.737C141.138 102.799 141.06 102.84 140.976 102.855C140.892 102.869 140.805 102.856 140.729 102.818C140.651 102.782 140.589 102.719 140.554 102.639ZM-51.6897 210.305C-51.6517 210.226 -51.6387 210.138 -51.6525 210.052C-51.6663 209.966 -51.7062 209.886 -51.7667 209.824C-51.8271 209.762 -51.905 209.721 -51.9894 209.707C-52.0738 209.693 -52.1605 209.706 -52.2372 209.745C-52.3144 209.781 -52.3761 209.844 -52.411 209.923C-52.4491 210.001 -52.4623 210.09 -52.4486 210.176C-52.4349 210.262 -52.395 210.341 -52.3347 210.403C-52.2743 210.465 -52.1965 210.506 -52.1122 210.52C-52.0278 210.534 -51.9413 210.521 -51.8647 210.482C-51.7871 210.447 -51.7249 210.384 -51.6897 210.305ZM237.528 231.673C237.567 231.595 237.58 231.507 237.566 231.42C237.553 231.334 237.513 231.254 237.452 231.192C237.391 231.13 237.313 231.09 237.229 231.076C237.144 231.062 237.057 231.075 236.981 231.114C236.903 231.15 236.841 231.213 236.806 231.292C236.768 231.37 236.754 231.459 236.768 231.545C236.782 231.632 236.822 231.712 236.883 231.773C236.943 231.835 237.022 231.876 237.106 231.89C237.191 231.904 237.278 231.891 237.355 231.852C237.432 231.816 237.494 231.753 237.528 231.673ZM175.094 196.451C175.132 196.373 175.145 196.285 175.132 196.198C175.118 196.112 175.078 196.033 175.018 195.971C174.957 195.909 174.879 195.868 174.795 195.854C174.71 195.839 174.624 195.853 174.547 195.891C174.47 195.927 174.408 195.991 174.373 196.07C174.335 196.148 174.321 196.236 174.335 196.323C174.348 196.409 174.388 196.489 174.448 196.551C174.509 196.613 174.587 196.654 174.671 196.668C174.756 196.682 174.843 196.669 174.919 196.63C174.997 196.593 175.059 196.53 175.094 196.451ZM90.2936 27.2149C90.3321 27.1368 90.3456 27.0483 90.3321 26.9619C90.3186 26.8756 90.2788 26.7957 90.2183 26.7338C90.1579 26.6718 90.0798 26.6308 89.9953 26.6166C89.9107 26.6025 89.8239 26.6159 89.7473 26.6549C89.6696 26.6908 89.6074 26.7543 89.5722 26.8335C89.5342 26.9118 89.5212 27.0002 89.535 27.0864C89.5488 27.1726 89.5888 27.2522 89.6492 27.314C89.7096 27.3758 89.7875 27.4167 89.8719 27.431C89.9563 27.4453 90.043 27.4322 90.1197 27.3936C90.1971 27.3576 90.2589 27.2941 90.2936 27.2149Z" fill="#A1AEE5" fill-opacity="0.4"/>
<path d="M554.314 161.446C554.352 161.368 554.366 161.28 554.352 161.193C554.339 161.107 554.299 161.027 554.239 160.965C554.178 160.903 554.1 160.862 554.015 160.848C553.931 160.834 553.844 160.847 553.767 160.886C553.69 160.922 553.628 160.986 553.592 161.065C553.555 161.143 553.542 161.231 553.556 161.317C553.57 161.403 553.61 161.482 553.67 161.544C553.731 161.606 553.809 161.646 553.893 161.661C553.977 161.675 554.063 161.662 554.14 161.624C554.217 161.588 554.279 161.525 554.314 161.446ZM149.33 -3.44704C149.368 -3.52529 149.381 -3.61373 149.367 -3.69992C149.353 -3.78611 149.313 -3.8657 149.253 -3.92752C149.192 -3.98934 149.114 -4.03027 149.03 -4.04455C148.946 -4.05883 148.859 -4.04573 148.782 -4.00712C148.705 -3.97117 148.643 -3.90765 148.608 -3.82848C148.57 -3.7504 148.557 -3.66208 148.571 -3.57597C148.585 -3.48986 148.624 -3.41032 148.685 -3.34857C148.745 -3.28682 148.823 -3.24598 148.907 -3.23181C148.992 -3.21764 149.078 -3.23086 149.155 -3.2696C149.232 -3.30556 149.294 -3.36849 149.33 -3.44704ZM353.041 119.017C353.079 118.938 353.092 118.85 353.079 118.763C353.065 118.677 353.025 118.597 352.964 118.535C352.903 118.473 352.825 118.432 352.741 118.418C352.656 118.404 352.569 118.418 352.492 118.457C352.415 118.493 352.353 118.556 352.318 118.635C352.28 118.714 352.267 118.802 352.281 118.888C352.295 118.974 352.335 119.054 352.395 119.116C352.456 119.178 352.534 119.219 352.618 119.233C352.703 119.247 352.789 119.234 352.866 119.195C352.944 119.16 353.006 119.096 353.041 119.017ZM243.838 86.997C243.877 86.9188 243.89 86.83 243.877 86.7434C243.863 86.6568 243.823 86.5767 243.763 86.5147C243.702 86.4526 243.624 86.4117 243.539 86.3977C243.454 86.3837 243.367 86.3975 243.29 86.4369C243.213 86.4731 243.152 86.5366 243.117 86.6156C243.079 86.6937 243.066 86.7819 243.08 86.8679C243.094 86.9538 243.133 87.0332 243.194 87.095C243.254 87.1567 243.331 87.1976 243.416 87.2121C243.5 87.2266 243.586 87.2138 243.663 87.1756C243.74 87.1391 243.802 87.0758 243.838 86.997ZM38.8969 136.094C38.9349 136.016 38.9479 135.928 38.9341 135.841C38.9203 135.755 38.8803 135.676 38.8199 135.614C38.7595 135.552 38.6816 135.511 38.5972 135.497C38.5128 135.482 38.4261 135.496 38.3494 135.534C38.2719 135.57 38.2101 135.634 38.1756 135.713C38.1372 135.791 38.1239 135.88 38.1376 135.966C38.1513 136.052 38.1912 136.132 38.2518 136.194C38.3124 136.256 38.3905 136.297 38.4751 136.311C38.5597 136.324 38.6464 136.311 38.7231 136.272C38.8002 136.236 38.862 136.173 38.8969 136.094Z" fill="#A1AEE5" fill-opacity="0.4"/>
<path d="M150.939 163.4C150.976 163.322 150.989 163.234 150.975 163.148C150.962 163.062 150.922 162.983 150.862 162.921C150.801 162.859 150.724 162.818 150.64 162.804C150.555 162.789 150.469 162.802 150.392 162.84C150.315 162.876 150.252 162.94 150.217 163.019C150.179 163.097 150.166 163.186 150.179 163.272C150.193 163.358 150.233 163.438 150.294 163.5C150.354 163.562 150.432 163.603 150.517 163.617C150.601 163.631 150.688 163.617 150.765 163.578C150.842 163.542 150.904 163.479 150.939 163.4Z" fill="#A1AEE5" fill-opacity="0.8"/>
<path d="M32.4948 166.833C32.5332 166.755 32.5465 166.667 32.5328 166.58C32.5192 166.494 32.4792 166.414 32.4186 166.352C32.358 166.29 32.2799 166.25 32.1953 166.236C32.1107 166.222 32.024 166.235 31.9473 166.274C31.8702 166.31 31.8085 166.373 31.7735 166.452C31.7347 166.53 31.7211 166.619 31.7346 166.705C31.7481 166.792 31.788 166.872 31.8487 166.934C31.9094 166.996 31.9877 167.037 32.0725 167.051C32.1573 167.065 32.2443 167.051 32.321 167.012C32.3985 166.976 32.4603 166.913 32.4948 166.833Z" fill="#A1AEE5" fill-opacity="0.8"/>
<path d="M142.315 44.0014C142.353 43.923 142.366 43.8344 142.353 43.7479C142.339 43.6615 142.299 43.5817 142.238 43.5198C142.177 43.4579 142.099 43.417 142.015 43.4029C141.93 43.3888 141.843 43.4022 141.766 43.4413C141.689 43.4775 141.627 43.5409 141.591 43.62C141.553 43.6983 141.541 43.7867 141.555 43.8729C141.569 43.9591 141.609 44.0386 141.669 44.1003C141.73 44.1619 141.808 44.2027 141.892 44.2168C141.977 44.2309 142.063 44.2176 142.14 44.1788C142.217 44.1431 142.279 44.0801 142.315 44.0014Z" fill="#A1AEE5" fill-opacity="0.4"/>
<path d="M115.253 117.241C115.291 117.163 115.304 117.075 115.29 116.988C115.276 116.902 115.236 116.823 115.175 116.761C115.115 116.699 115.037 116.659 114.952 116.644C114.868 116.63 114.781 116.644 114.705 116.682C114.627 116.718 114.565 116.782 114.531 116.861C114.493 116.939 114.481 117.028 114.495 117.113C114.509 117.199 114.548 117.279 114.609 117.34C114.669 117.402 114.747 117.443 114.831 117.457C114.915 117.471 115.002 117.458 115.078 117.42C115.156 117.384 115.218 117.321 115.253 117.241ZM7.87245 56.9051C7.94899 56.9436 8.03541 56.9567 8.11962 56.9426C8.20382 56.9285 8.28161 56.8879 8.34208 56.8265C8.40255 56.765 8.44268 56.6858 8.45685 56.5999C8.47103 56.514 8.45854 56.4257 8.42113 56.3474C8.38588 56.2682 8.3237 56.2048 8.24612 56.1688C8.16948 56.1292 8.08254 56.1152 7.99769 56.129C7.91285 56.1428 7.83443 56.1836 7.77361 56.2455C7.7128 56.3074 7.67269 56.3874 7.65901 56.474C7.64533 56.5606 7.65878 56.6493 7.69744 56.7277C7.73292 56.8073 7.7944 56.8689 7.87245 56.9051Z" fill="#A1AEE5" fill-opacity="0.8"/>
<path d="M41.7499 74.2564C41.7879 74.1781 41.8009 74.0897 41.7871 74.0035C41.7733 73.9173 41.7333 73.8377 41.6729 73.7759C41.6125 73.7141 41.5346 73.6731 41.4502 73.6588C41.3658 73.6446 41.2791 73.6577 41.2024 73.6963C41.1245 73.7318 41.0622 73.7954 41.0274 73.8749C40.989 73.9531 40.9757 74.0417 40.9894 74.128C41.0031 74.2144 41.043 74.2941 41.1036 74.3559C41.1642 74.4178 41.2423 74.4586 41.3269 74.4726C41.4115 74.4865 41.4983 74.473 41.5749 74.4338C41.652 74.3981 41.7149 74.3351 41.7499 74.2564ZM295.871 109.976C295.909 109.898 295.922 109.809 295.908 109.723C295.894 109.638 295.854 109.558 295.794 109.496C295.734 109.435 295.656 109.394 295.572 109.379C295.488 109.365 295.402 109.378 295.325 109.416C295.248 109.452 295.186 109.515 295.151 109.594C295.112 109.672 295.099 109.761 295.113 109.847C295.126 109.934 295.166 110.014 295.226 110.076C295.287 110.138 295.365 110.178 295.449 110.193C295.534 110.207 295.621 110.193 295.697 110.154C295.775 110.118 295.836 110.055 295.871 109.976ZM407.794 173.261C407.832 173.183 407.845 173.094 407.831 173.008C407.817 172.922 407.777 172.843 407.717 172.781C407.656 172.72 407.578 172.679 407.494 172.665C407.41 172.651 407.323 172.664 407.247 172.703C407.169 172.739 407.108 172.802 407.073 172.881C407.034 172.959 407.021 173.047 407.035 173.134C407.048 173.22 407.088 173.3 407.149 173.362C407.21 173.424 407.288 173.464 407.372 173.478C407.457 173.492 407.544 173.479 407.62 173.44C407.697 173.403 407.759 173.34 407.794 173.261Z" fill="#A1AEE5" fill-opacity="0.4"/>
<path d="M353.04 147.784C353.079 147.705 353.092 147.617 353.078 147.53C353.064 147.444 353.024 147.364 352.964 147.302C352.903 147.24 352.825 147.199 352.74 147.185C352.655 147.171 352.569 147.184 352.492 147.223C352.415 147.26 352.353 147.323 352.318 147.402C352.28 147.48 352.267 147.569 352.281 147.655C352.295 147.741 352.334 147.821 352.395 147.883C352.455 147.944 352.533 147.985 352.618 148C352.702 148.014 352.789 148.001 352.865 147.962C352.943 147.926 353.005 147.863 353.04 147.784ZM596.574 33.5085C596.612 33.4304 596.626 33.3418 596.612 33.2555C596.599 33.1691 596.559 33.0893 596.498 33.0273C596.438 32.9653 596.36 32.9243 596.275 32.9102C596.191 32.896 596.104 32.9094 596.027 32.9484C595.95 32.984 595.888 33.0471 595.854 33.1258C595.815 33.2039 595.801 33.2925 595.815 33.3788C595.828 33.4652 595.868 33.545 595.929 33.607C595.989 33.669 596.067 33.71 596.152 33.7241C596.236 33.7383 596.323 33.7249 596.4 33.6859C596.477 33.65 596.539 33.5864 596.574 33.5073V33.5085Z" fill="#A1AEE5" fill-opacity="0.8"/>
<path d="M610.78 106.443C610.818 106.365 610.831 106.276 610.818 106.19C610.804 106.104 610.764 106.024 610.704 105.962C610.644 105.9 610.566 105.859 610.481 105.845C610.397 105.83 610.31 105.843 610.234 105.882C610.156 105.918 610.094 105.981 610.059 106.06C610.02 106.138 610.006 106.227 610.02 106.314C610.033 106.4 610.073 106.48 610.134 106.543C610.194 106.605 610.273 106.646 610.358 106.659C610.442 106.673 610.529 106.66 610.606 106.62C610.683 106.584 610.745 106.522 610.78 106.443ZM237.615 167.234C237.652 167.156 237.665 167.067 237.651 166.981C237.637 166.895 237.596 166.816 237.536 166.754C237.476 166.693 237.398 166.652 237.314 166.637C237.229 166.623 237.143 166.636 237.066 166.674C236.989 166.711 236.927 166.774 236.891 166.853C236.854 166.931 236.841 167.019 236.855 167.105C236.869 167.191 236.909 167.271 236.97 167.333C237.03 167.394 237.108 167.435 237.192 167.449C237.276 167.464 237.363 167.451 237.44 167.413C237.517 167.376 237.579 167.313 237.615 167.234ZM214.057 287.326C214.096 287.248 214.11 287.159 214.096 287.073C214.083 286.986 214.043 286.906 213.982 286.844C213.922 286.782 213.843 286.741 213.759 286.728C213.674 286.714 213.587 286.728 213.511 286.767C213.433 286.803 213.371 286.866 213.336 286.945C213.298 287.023 213.285 287.111 213.298 287.198C213.312 287.284 213.352 287.363 213.413 287.425C213.473 287.487 213.551 287.528 213.635 287.542C213.72 287.556 213.806 287.543 213.883 287.505C213.96 287.469 214.022 287.405 214.057 287.326ZM-21.3726 127.41C-21.3353 127.331 -21.3227 127.243 -21.3367 127.158C-21.3507 127.072 -21.3906 126.993 -21.4507 126.931C-21.5108 126.87 -21.5882 126.829 -21.6721 126.815C-21.7561 126.8 -21.8423 126.813 -21.9189 126.851C-21.9965 126.887 -22.0587 126.95 -22.0939 127.029C-22.1327 127.108 -22.1464 127.196 -22.1329 127.283C-22.1194 127.369 -22.0794 127.45 -22.0188 127.512C-21.9581 127.574 -21.8797 127.615 -21.7949 127.629C-21.7101 127.643 -21.6231 127.629 -21.5464 127.589C-21.4693 127.553 -21.4076 127.488 -21.3726 127.41ZM551.761 194.373C551.8 194.294 551.813 194.206 551.8 194.12C551.786 194.033 551.746 193.953 551.686 193.891C551.625 193.829 551.547 193.788 551.463 193.774C551.378 193.76 551.292 193.773 551.215 193.812C551.138 193.849 551.076 193.912 551.04 193.991C551.002 194.069 550.989 194.158 551.003 194.244C551.016 194.33 551.056 194.41 551.117 194.472C551.177 194.533 551.255 194.574 551.339 194.589C551.424 194.603 551.511 194.59 551.587 194.551C551.664 194.515 551.726 194.452 551.761 194.373ZM122.033 73.9873C121.995 73.9089 121.982 73.8203 121.996 73.7338C122.009 73.6474 122.049 73.5676 122.11 73.5057C122.171 73.4438 122.249 73.4029 122.334 73.3888C122.418 73.3747 122.505 73.3882 122.582 73.4272C122.66 73.4634 122.72 73.525 122.757 73.6059C122.795 73.6842 122.808 73.7727 122.794 73.8588C122.78 73.945 122.74 74.0245 122.679 74.0862C122.618 74.1479 122.54 74.1886 122.456 74.2027C122.372 74.2168 122.285 74.2035 122.208 74.1647C122.131 74.1289 122.069 74.0659 122.033 73.9873ZM378.888 243.3C378.851 243.221 378.839 243.133 378.853 243.047C378.867 242.961 378.907 242.882 378.967 242.82C379.028 242.758 379.105 242.717 379.19 242.703C379.274 242.689 379.36 242.701 379.437 242.74C379.514 242.776 379.576 242.839 379.612 242.918C379.65 242.997 379.662 243.085 379.648 243.171C379.634 243.257 379.594 243.336 379.534 243.398C379.473 243.46 379.395 243.501 379.311 243.515C379.227 243.529 379.14 243.517 379.063 243.478C378.986 243.442 378.924 243.378 378.888 243.3ZM74.5273 230.953C74.4893 230.874 74.4763 230.786 74.4901 230.7C74.5039 230.614 74.5438 230.534 74.6043 230.472C74.6647 230.41 74.7426 230.369 74.827 230.355C74.9114 230.341 74.9981 230.354 75.0748 230.393C75.1525 230.428 75.2144 230.492 75.2486 230.571C75.2876 230.649 75.3014 230.738 75.288 230.824C75.2746 230.911 75.2347 230.991 75.1741 231.053C75.1135 231.115 75.0352 231.156 74.9505 231.17C74.8657 231.184 74.7789 231.17 74.7023 231.13C74.625 231.094 74.5628 231.031 74.5273 230.953ZM303.201 244.944C303.164 244.865 303.151 244.777 303.165 244.691C303.179 244.605 303.219 244.526 303.28 244.464C303.34 244.402 303.418 244.361 303.502 244.347C303.586 244.333 303.673 244.345 303.75 244.384C303.827 244.42 303.889 244.483 303.925 244.562C303.963 244.641 303.976 244.729 303.962 244.816C303.949 244.902 303.909 244.982 303.848 245.044C303.787 245.106 303.709 245.147 303.624 245.161C303.54 245.175 303.453 245.161 303.376 245.122C303.299 245.086 303.237 245.022 303.201 244.944ZM407.07 256.449C407.032 256.371 407.02 256.283 407.034 256.197C407.048 256.111 407.088 256.032 407.148 255.97C407.208 255.909 407.286 255.868 407.37 255.854C407.454 255.839 407.541 255.852 407.617 255.891C407.695 255.927 407.756 255.99 407.791 256.069C407.83 256.147 407.843 256.236 407.83 256.322C407.816 256.408 407.776 256.488 407.716 256.55C407.655 256.611 407.577 256.652 407.493 256.666C407.408 256.68 407.321 256.666 407.245 256.627C407.168 256.591 407.105 256.528 407.07 256.449ZM40.6344 160.339C40.5964 160.261 40.5834 160.173 40.5972 160.087C40.611 160 40.6509 159.921 40.7113 159.859C40.7718 159.797 40.8497 159.756 40.9341 159.742C41.0185 159.728 41.1051 159.741 41.1819 159.779C41.2595 159.815 41.3215 159.878 41.3557 159.958C41.3938 160.036 41.407 160.124 41.3933 160.21C41.3796 160.297 41.3397 160.376 41.2794 160.438C41.219 160.5 41.1412 160.54 41.0568 160.555C40.9725 160.569 40.886 160.556 40.8094 160.517C40.7318 160.481 40.6696 160.418 40.6344 160.339ZM-5.01028 26.5799C-4.93367 26.5407 -4.84692 26.5271 -4.76234 26.5411C-4.67775 26.5551 -4.59963 26.5959 -4.53904 26.6577C-4.47845 26.7196 -4.43848 26.7993 -4.42479 26.8857C-4.4111 26.972 -4.42439 27.0606 -4.46278 27.1388C-4.49827 27.2175 -4.56042 27.2805 -4.63779 27.3162C-4.71441 27.3546 -4.80085 27.3675 -4.88503 27.3532C-4.96921 27.3389 -5.04691 27.2981 -5.10725 27.2365C-5.16759 27.1749 -5.20755 27.0956 -5.22154 27.0097C-5.23554 26.9238 -5.22286 26.8355 -5.18529 26.7573C-5.1498 26.6786 -5.08765 26.6156 -5.01028 26.5799ZM-18.097 216.176C-18.135 216.097 -18.1481 216.009 -18.1343 215.923C-18.1204 215.837 -18.0805 215.757 -18.0201 215.695C-17.9597 215.633 -17.8818 215.592 -17.7974 215.578C-17.713 215.564 -17.6263 215.577 -17.5496 215.616C-17.4722 215.652 -17.4101 215.715 -17.3745 215.794C-17.3363 215.873 -17.3231 215.961 -17.3369 216.048C-17.3507 216.134 -17.3908 216.214 -17.4514 216.276C-17.5121 216.338 -17.5903 216.379 -17.6749 216.393C-17.7596 216.407 -17.8464 216.393 -17.9232 216.354C-18.0006 216.318 -18.0627 216.255 -18.0982 216.176H-18.097ZM52.917 116.85C52.8791 116.772 52.866 116.683 52.8799 116.597C52.8937 116.511 52.9336 116.431 52.994 116.37C53.0544 116.308 53.1323 116.267 53.2167 116.253C53.3011 116.238 53.3878 116.251 53.4646 116.29C53.5426 116.326 53.6029 116.389 53.6384 116.469C53.6772 116.547 53.6908 116.636 53.6773 116.722C53.6638 116.809 53.6239 116.889 53.5632 116.951C53.5025 117.013 53.4242 117.054 53.3394 117.068C53.2546 117.082 53.1676 117.068 53.0909 117.029C53.0137 116.993 52.952 116.929 52.917 116.85ZM0.668108 104.322C0.630791 104.244 0.618258 104.156 0.632256 104.07C0.646254 103.985 0.68609 103.905 0.74621 103.844C0.80633 103.782 0.883739 103.742 0.967663 103.727C1.05159 103.713 1.13785 103.725 1.21442 103.763C1.29247 103.799 1.35278 103.861 1.38825 103.941C1.42681 104.019 1.44028 104.107 1.42678 104.194C1.41327 104.28 1.37347 104.36 1.31301 104.422C1.25256 104.484 1.17451 104.525 1.08996 104.539C1.0054 104.553 0.918625 104.54 0.841936 104.501C0.764357 104.465 0.703365 104.401 0.668108 104.322ZM140.17 234.092C140.132 234.014 140.119 233.925 140.133 233.839C140.147 233.752 140.187 233.672 140.247 233.611C140.308 233.549 140.386 233.508 140.471 233.494C140.556 233.48 140.642 233.493 140.719 233.532C140.796 233.569 140.858 233.632 140.894 233.711C140.932 233.789 140.945 233.878 140.931 233.964C140.917 234.05 140.877 234.129 140.816 234.191C140.756 234.253 140.678 234.293 140.593 234.308C140.509 234.322 140.422 234.308 140.345 234.27C140.268 234.234 140.206 234.171 140.17 234.092ZM277.433 253.985C277.396 253.906 277.383 253.818 277.397 253.732C277.411 253.646 277.451 253.566 277.512 253.505C277.572 253.443 277.65 253.402 277.734 253.388C277.818 253.373 277.905 253.386 277.982 253.424C278.059 253.461 278.121 253.524 278.157 253.603C278.195 253.682 278.208 253.77 278.194 253.857C278.181 253.943 278.141 254.023 278.08 254.085C278.019 254.147 277.941 254.188 277.856 254.202C277.772 254.216 277.685 254.202 277.608 254.163C277.531 254.127 277.469 254.063 277.433 253.985Z" fill="#A1AEE5" fill-opacity="0.4"/>
<path d="M332.187 171.618C332.149 171.54 332.137 171.451 332.151 171.365C332.165 171.279 332.205 171.2 332.265 171.138C332.326 171.076 332.404 171.035 332.488 171.021C332.573 171.007 332.659 171.021 332.736 171.059C332.814 171.096 332.874 171.157 332.911 171.237C332.949 171.315 332.962 171.404 332.949 171.49C332.935 171.577 332.895 171.656 332.834 171.718C332.773 171.78 332.695 171.821 332.611 171.835C332.526 171.849 332.439 171.836 332.362 171.797C332.285 171.761 332.223 171.697 332.187 171.618ZM430.083 115.532C430.045 115.454 430.033 115.365 430.047 115.279C430.061 115.193 430.101 115.113 430.161 115.052C430.222 114.99 430.3 114.949 430.384 114.935C430.469 114.921 430.555 114.934 430.632 114.973C430.71 115.009 430.77 115.071 430.807 115.151C430.845 115.229 430.858 115.318 430.845 115.404C430.831 115.49 430.791 115.57 430.73 115.632C430.669 115.694 430.591 115.735 430.507 115.749C430.422 115.763 430.335 115.75 430.258 115.711C430.181 115.675 430.118 115.611 430.083 115.532ZM235.566 151.892C235.528 151.814 235.515 151.726 235.529 151.639C235.543 151.553 235.584 151.474 235.644 151.412C235.705 151.35 235.783 151.31 235.867 151.296C235.951 151.281 236.038 151.295 236.115 151.333C236.193 151.37 236.253 151.431 236.29 151.512C236.328 151.59 236.34 151.679 236.326 151.765C236.312 151.851 236.272 151.931 236.212 151.992C236.151 152.054 236.073 152.095 235.989 152.109C235.904 152.123 235.818 152.11 235.741 152.071C235.663 152.035 235.601 151.972 235.566 151.892Z" fill="#A1AEE5" fill-opacity="0.8"/>
<path d="M268.577 286.86C268.539 286.782 268.526 286.694 268.54 286.608C268.554 286.522 268.594 286.443 268.655 286.381C268.715 286.32 268.793 286.279 268.877 286.265C268.961 286.25 269.048 286.263 269.124 286.302C269.202 286.338 269.261 286.399 269.298 286.48C269.336 286.558 269.35 286.647 269.336 286.733C269.322 286.82 269.282 286.899 269.222 286.961C269.161 287.023 269.083 287.064 268.998 287.078C268.914 287.092 268.827 287.078 268.75 287.039C268.673 287.003 268.611 286.94 268.577 286.86ZM521.679 226.849C521.641 226.771 521.628 226.682 521.641 226.596C521.655 226.51 521.695 226.43 521.756 226.368C521.816 226.307 521.894 226.266 521.978 226.251C522.063 226.237 522.149 226.25 522.226 226.289C522.303 226.325 522.365 226.389 522.4 226.467C522.438 226.546 522.451 226.634 522.438 226.72C522.424 226.806 522.384 226.886 522.324 226.947C522.263 227.009 522.185 227.05 522.101 227.064C522.017 227.078 521.93 227.065 521.854 227.026C521.776 226.991 521.714 226.928 521.679 226.849ZM493.945 216.373C493.907 216.295 493.893 216.206 493.907 216.12C493.92 216.033 493.96 215.954 494.021 215.892C494.081 215.83 494.159 215.789 494.244 215.775C494.328 215.76 494.415 215.774 494.492 215.813C494.57 215.849 494.63 215.911 494.667 215.991C494.704 216.07 494.717 216.158 494.703 216.244C494.689 216.33 494.649 216.409 494.589 216.471C494.528 216.532 494.451 216.573 494.366 216.587C494.282 216.602 494.196 216.589 494.119 216.55C494.042 216.515 493.98 216.452 493.945 216.373ZM595.357 226.587C595.319 226.509 595.305 226.42 595.319 226.334C595.333 226.247 595.373 226.167 595.434 226.105C595.494 226.043 595.573 226.003 595.657 225.988C595.742 225.974 595.829 225.988 595.906 226.027C595.983 226.063 596.044 226.127 596.079 226.206C596.117 226.284 596.13 226.372 596.117 226.458C596.103 226.545 596.063 226.624 596.002 226.686C595.942 226.748 595.864 226.789 595.78 226.803C595.695 226.817 595.609 226.804 595.532 226.766C595.454 226.73 595.392 226.666 595.357 226.587ZM-2.8932 165.84C-2.93132 165.762 -2.94446 165.674 -2.93076 165.588C-2.91706 165.502 -2.87722 165.422 -2.81686 165.36C-2.75649 165.299 -2.67865 165.258 -2.59433 165.244C-2.51 165.229 -2.42345 165.243 -2.34688 165.281C-2.26883 165.318 -2.20853 165.379 -2.17187 165.459C-2.13305 165.537 -2.11941 165.626 -2.13291 165.712C-2.1464 165.799 -2.18634 165.879 -2.24702 165.941C-2.30771 166.003 -2.38604 166.044 -2.47086 166.058C-2.55567 166.072 -2.64265 166.058 -2.71937 166.019C-2.79638 165.983 -2.85806 165.919 -2.8932 165.84ZM443.303 253.985C443.265 253.907 443.252 253.818 443.266 253.731C443.28 253.645 443.32 253.565 443.38 253.503C443.441 253.441 443.519 253.4 443.604 253.386C443.688 253.372 443.775 253.386 443.852 253.425C443.929 253.461 443.991 253.524 444.026 253.603C444.064 253.682 444.077 253.77 444.063 253.856C444.049 253.943 444.009 254.022 443.949 254.084C443.889 254.146 443.811 254.187 443.726 254.201C443.642 254.215 443.555 254.202 443.478 254.164C443.401 254.127 443.339 254.064 443.303 253.985Z" fill="#A1AEE5" fill-opacity="0.4"/>
<path d="M440.357 53.9778C440.396 53.8997 440.409 53.8112 440.396 53.7248C440.382 53.6385 440.342 53.5586 440.282 53.4966C440.222 53.4347 440.143 53.3937 440.059 53.3795C439.974 53.3654 439.888 53.3787 439.811 53.4178C439.734 53.4543 439.672 53.5176 439.636 53.5964C439.598 53.6747 439.585 53.7631 439.599 53.8493C439.613 53.9355 439.652 54.0151 439.713 54.0769C439.773 54.1387 439.851 54.1796 439.936 54.1939C440.02 54.2082 440.107 54.1951 440.183 54.1565C440.261 54.1203 440.322 54.0568 440.357 53.9778ZM405.462 -46.8192C405.499 -46.8973 405.512 -46.9855 405.498 -47.0715C405.485 -47.1574 405.445 -47.2368 405.385 -47.2985C405.324 -47.3603 405.247 -47.4012 405.163 -47.4157C405.078 -47.4302 404.992 -47.4174 404.915 -47.3792C404.838 -47.343 404.776 -47.2796 404.74 -47.2006C404.701 -47.1224 404.688 -47.0336 404.701 -46.947C404.715 -46.8604 404.755 -46.7803 404.815 -46.7183C404.876 -46.6562 404.954 -46.6153 405.039 -46.6013C405.124 -46.5873 405.211 -46.6011 405.288 -46.6405C405.365 -46.6765 405.427 -46.74 405.462 -46.8192ZM466.021 -22.3508C466.059 -22.4292 466.073 -22.5178 466.059 -22.6042C466.045 -22.6907 466.005 -22.7705 465.944 -22.8324C465.884 -22.8943 465.805 -22.9352 465.721 -22.9493C465.636 -22.9634 465.549 -22.9499 465.472 -22.9109C465.395 -22.8748 465.333 -22.8113 465.299 -22.7322C465.261 -22.654 465.248 -22.5658 465.262 -22.4798C465.276 -22.3939 465.316 -22.3146 465.377 -22.253C465.437 -22.1914 465.515 -22.1506 465.599 -22.1363C465.683 -22.1221 465.769 -22.135 465.846 -22.1734C465.924 -22.2093 465.986 -22.2715 466.021 -22.3508ZM265.273 26.1418C265.312 26.0635 265.326 25.9748 265.312 25.8882C265.299 25.8016 265.259 25.7215 265.198 25.6594C265.137 25.5974 265.059 25.5564 264.974 25.5424C264.889 25.5285 264.803 25.5422 264.726 25.5817C264.649 25.6177 264.587 25.6812 264.552 25.7603C264.514 25.8384 264.501 25.9267 264.515 26.0126C264.529 26.0986 264.569 26.178 264.629 26.2397C264.689 26.3014 264.767 26.3424 264.851 26.3569C264.935 26.3713 265.022 26.3586 265.098 26.3204C265.176 26.2841 265.238 26.2208 265.273 26.1418ZM401.605 85.3192C401.644 85.241 401.658 85.1522 401.644 85.0656C401.631 84.979 401.591 84.899 401.53 84.8369C401.47 84.7748 401.391 84.7339 401.306 84.7199C401.222 84.706 401.135 84.7197 401.058 84.7592C400.98 84.795 400.919 84.8586 400.884 84.9378C400.846 85.0159 400.833 85.1042 400.846 85.1903C400.86 85.2764 400.9 85.3559 400.96 85.4177C401.021 85.4794 401.099 85.5203 401.183 85.5345C401.267 85.5486 401.354 85.5354 401.43 85.4967C401.508 85.461 401.57 85.3979 401.605 85.3192ZM528.825 99.291C528.863 99.2129 528.876 99.1246 528.863 99.0385C528.849 98.9524 528.809 98.8728 528.749 98.8111C528.688 98.7493 528.611 98.7085 528.526 98.6943C528.442 98.6801 528.355 98.6934 528.279 98.7321C528.202 98.7676 528.14 98.8307 528.105 98.9095C528.066 98.9877 528.053 99.0762 528.066 99.1626C528.08 99.2489 528.12 99.3288 528.18 99.3907C528.241 99.4527 528.319 99.4937 528.403 99.5079C528.488 99.522 528.575 99.5086 528.651 99.4696C528.729 99.4341 528.791 99.3705 528.825 99.291Z" fill="#A1AEE5" fill-opacity="0.4"/>
<path d="M223.647 57.3937C223.684 57.3156 223.697 57.2274 223.683 57.1414C223.67 57.0555 223.63 56.9761 223.57 56.9144C223.509 56.8526 223.432 56.8117 223.348 56.7972C223.263 56.7827 223.177 56.7955 223.1 56.8336C223.023 56.8702 222.961 56.9335 222.925 57.0123C222.887 57.0905 222.874 57.179 222.888 57.2652C222.902 57.3513 222.942 57.431 223.002 57.4928C223.063 57.5546 223.141 57.5955 223.225 57.6098C223.309 57.6241 223.396 57.611 223.473 57.5724C223.55 57.5361 223.612 57.4727 223.647 57.3937ZM370.222 -39.2534C370.26 -39.3315 370.273 -39.4198 370.259 -39.5059C370.245 -39.592 370.206 -39.6716 370.145 -39.7333C370.085 -39.7951 370.007 -39.8359 369.923 -39.8501C369.838 -39.8642 369.752 -39.851 369.675 -39.8123C369.598 -39.7766 369.536 -39.7135 369.501 -39.6348C369.462 -39.5568 369.449 -39.4681 369.462 -39.3816C369.475 -39.2951 369.515 -39.2151 369.576 -39.1531C369.637 -39.091 369.715 -39.0502 369.8 -39.0363C369.884 -39.0225 369.971 -39.0364 370.048 -39.076C370.125 -39.1119 370.187 -39.1742 370.222 -39.2534ZM314.725 110.377C314.763 110.298 314.776 110.21 314.762 110.124C314.748 110.038 314.708 109.959 314.647 109.897C314.587 109.836 314.509 109.795 314.425 109.781C314.341 109.766 314.255 109.779 314.178 109.818C314.101 109.853 314.039 109.916 314.004 109.995C313.966 110.073 313.952 110.162 313.966 110.248C313.979 110.334 314.019 110.414 314.079 110.476C314.14 110.538 314.218 110.579 314.302 110.593C314.387 110.608 314.474 110.594 314.55 110.555C314.628 110.52 314.691 110.456 314.725 110.377ZM469.872 4.21294C469.796 4.17332 469.709 4.1594 469.624 4.17317C469.539 4.18695 469.461 4.22771 469.4 4.28966C469.339 4.3516 469.299 4.43157 469.285 4.51815C469.272 4.60472 469.285 4.69349 469.324 4.77181C469.359 4.85268 469.419 4.91304 469.499 4.95046C469.575 4.98964 469.662 5.00321 469.747 4.98924C469.831 4.97527 469.909 4.93446 469.97 4.87262C470.03 4.81077 470.07 4.73102 470.084 4.64468C470.098 4.55834 470.085 4.46979 470.046 4.39159C470.011 4.31288 469.949 4.2486 469.872 4.21294ZM179.121 -3.90093C179.158 -3.97906 179.171 -4.06727 179.157 -4.15323C179.144 -4.23919 179.104 -4.31859 179.044 -4.38032C178.983 -4.44204 178.906 -4.48301 178.822 -4.49747C178.737 -4.51194 178.651 -4.49919 178.574 -4.46101C178.497 -4.42475 178.435 -4.36137 178.399 -4.28237C178.36 -4.20414 178.347 -4.11538 178.36 -4.02877C178.374 -3.94217 178.414 -3.86211 178.474 -3.80004C178.535 -3.73796 178.613 -3.69703 178.698 -3.68306C178.783 -3.6691 178.87 -3.68283 178.947 -3.72229C179.024 -3.75833 179.086 -3.82183 179.121 -3.90093ZM211.639 -28.4103C211.678 -28.4885 211.691 -28.577 211.678 -28.6634C211.664 -28.7497 211.625 -28.8296 211.564 -28.8915C211.504 -28.9535 211.426 -28.9945 211.341 -29.0087C211.257 -29.0228 211.17 -29.0094 211.093 -28.9704C211.016 -28.9342 210.954 -28.8708 210.918 -28.7918C210.88 -28.7135 210.867 -28.6251 210.881 -28.5389C210.895 -28.4527 210.935 -28.3731 210.995 -28.3113C211.056 -28.2495 211.133 -28.2086 211.218 -28.1943C211.302 -28.18 211.389 -28.1931 211.466 -28.2317C211.543 -28.2677 211.605 -28.3312 211.639 -28.4103ZM438.702 107.108C438.739 107.029 438.752 106.941 438.738 106.855C438.724 106.769 438.684 106.689 438.624 106.628C438.563 106.566 438.485 106.525 438.401 106.511C438.316 106.497 438.229 106.51 438.153 106.549C438.075 106.585 438.013 106.648 437.978 106.726C437.94 106.805 437.926 106.893 437.94 106.98C437.954 107.066 437.994 107.146 438.055 107.208C438.115 107.27 438.194 107.311 438.278 107.325C438.363 107.339 438.45 107.326 438.527 107.286C438.604 107.251 438.666 107.187 438.702 107.108Z" fill="#A1AEE5" fill-opacity="0.4"/>
<path d="M503.69 25.4959C503.614 25.5356 503.527 25.5495 503.442 25.5357C503.357 25.5219 503.279 25.4812 503.218 25.4192C503.157 25.3573 503.117 25.2773 503.103 25.1908C503.09 25.1042 503.103 25.0154 503.142 24.9371C503.177 24.8585 503.239 24.7955 503.317 24.7596C503.393 24.7211 503.48 24.708 503.564 24.7221C503.648 24.7362 503.726 24.7768 503.786 24.8383C503.847 24.8997 503.887 24.9789 503.901 25.0648C503.915 25.1507 503.903 25.239 503.865 25.3173C503.83 25.3964 503.768 25.4598 503.69 25.4959ZM188.176 -44.1902C188.138 -44.2686 188.125 -44.357 188.139 -44.4432C188.153 -44.5293 188.193 -44.6088 188.254 -44.6705C188.314 -44.7322 188.392 -44.773 188.477 -44.7871C188.561 -44.8012 188.648 -44.7879 188.724 -44.7491C188.802 -44.7136 188.864 -44.6499 188.898 -44.5704C188.936 -44.4922 188.948 -44.404 188.934 -44.3181C188.92 -44.2321 188.881 -44.1528 188.82 -44.0912C188.76 -44.0296 188.682 -43.9889 188.598 -43.9746C188.514 -43.9603 188.427 -43.9732 188.351 -44.0116C188.273 -44.0475 188.211 -44.1116 188.176 -44.1902ZM338.885 72.1694C338.846 72.0914 338.832 72.0027 338.845 71.9162C338.859 71.8297 338.899 71.7497 338.959 71.6877C339.02 71.6257 339.098 71.5848 339.183 71.571C339.268 71.5571 339.354 71.571 339.431 71.6106C339.509 71.6464 339.571 71.7099 339.606 71.7892C339.644 71.8674 339.657 71.9557 339.643 72.0418C339.629 72.1279 339.589 72.2073 339.529 72.269C339.468 72.3306 339.39 72.3712 339.306 72.3852C339.222 72.3992 339.135 72.3858 339.059 72.3469C338.981 72.3111 338.92 72.2481 338.885 72.1694Z" fill="#A1AEE5" fill-opacity="0.4"/>
<path d="M241.456 105.22C241.417 105.142 241.404 105.054 241.417 104.967C241.431 104.881 241.471 104.801 241.531 104.739C241.592 104.677 241.67 104.636 241.754 104.622C241.839 104.608 241.926 104.621 242.002 104.66C242.08 104.696 242.142 104.759 242.176 104.839C242.214 104.917 242.227 105.005 242.214 105.091C242.2 105.177 242.16 105.257 242.1 105.319C242.039 105.38 241.962 105.421 241.877 105.435C241.793 105.45 241.706 105.436 241.63 105.398C241.553 105.362 241.491 105.299 241.456 105.22ZM288.495 123.185C288.456 123.107 288.443 123.018 288.456 122.932C288.47 122.846 288.51 122.766 288.57 122.704C288.63 122.642 288.709 122.601 288.793 122.587C288.878 122.572 288.964 122.586 289.041 122.625C289.119 122.661 289.181 122.724 289.216 122.803C289.254 122.882 289.267 122.97 289.253 123.056C289.24 123.143 289.2 123.222 289.139 123.284C289.079 123.346 289.001 123.387 288.916 123.401C288.832 123.415 288.745 123.402 288.669 123.364C288.591 123.328 288.53 123.264 288.495 123.185ZM199.33 120.013C199.293 119.935 199.28 119.846 199.294 119.76C199.308 119.674 199.348 119.595 199.409 119.534C199.469 119.472 199.547 119.431 199.631 119.417C199.715 119.403 199.801 119.416 199.878 119.454C199.956 119.49 200.016 119.552 200.052 119.631C200.091 119.709 200.105 119.798 200.091 119.885C200.078 119.971 200.038 120.051 199.977 120.113C199.917 120.175 199.838 120.216 199.754 120.23C199.669 120.244 199.582 120.23 199.505 120.19C199.428 120.154 199.366 120.091 199.33 120.013ZM350.768 207.566C350.73 207.487 350.716 207.399 350.73 207.312C350.744 207.226 350.784 207.146 350.845 207.084C350.905 207.022 350.984 206.981 351.068 206.967C351.153 206.953 351.24 206.967 351.317 207.006C351.395 207.042 351.455 207.104 351.492 207.184C351.529 207.263 351.542 207.351 351.528 207.437C351.514 207.524 351.474 207.603 351.414 207.665C351.353 207.726 351.275 207.767 351.191 207.781C351.106 207.795 351.02 207.782 350.943 207.743C350.865 207.708 350.803 207.645 350.768 207.566ZM554.416 109.505C554.34 109.545 554.253 109.558 554.168 109.545C554.084 109.531 554.006 109.49 553.945 109.428C553.884 109.367 553.844 109.287 553.83 109.201C553.816 109.114 553.829 109.026 553.868 108.948C553.903 108.868 553.965 108.805 554.043 108.769C554.119 108.73 554.206 108.716 554.291 108.73C554.375 108.744 554.453 108.785 554.514 108.847C554.574 108.909 554.614 108.988 554.628 109.075C554.642 109.161 554.629 109.25 554.59 109.328C554.555 109.407 554.493 109.47 554.416 109.505ZM14.9462 137.274C14.908 137.196 14.8949 137.107 14.9086 137.021C14.9223 136.935 14.9621 136.856 15.0225 136.794C15.0829 136.732 15.1607 136.691 15.245 136.677C15.3293 136.663 15.4159 136.676 15.4925 136.715C15.5705 136.751 15.6308 136.813 15.6675 136.892C15.7055 136.971 15.7185 137.059 15.7047 137.145C15.6909 137.231 15.651 137.311 15.5905 137.373C15.5301 137.435 15.4522 137.476 15.3678 137.49C15.2834 137.504 15.1967 137.491 15.12 137.452C15.0428 137.416 14.9811 137.353 14.9462 137.274ZM180.01 257.273C179.971 257.195 179.958 257.106 179.971 257.02C179.985 256.933 180.024 256.853 180.085 256.792C180.145 256.73 180.223 256.689 180.308 256.674C180.392 256.66 180.479 256.674 180.556 256.713C180.633 256.749 180.695 256.812 180.73 256.891C180.767 256.969 180.78 257.058 180.766 257.144C180.753 257.23 180.713 257.309 180.653 257.371C180.592 257.432 180.515 257.473 180.431 257.488C180.347 257.502 180.26 257.49 180.183 257.451C180.106 257.415 180.044 257.352 180.01 257.273Z" fill="#A1AEE5" fill-opacity="0.4"/>
<path d="M101.906 146.961C101.867 146.883 101.853 146.795 101.866 146.708C101.88 146.622 101.92 146.542 101.98 146.48C102.041 146.418 102.119 146.377 102.204 146.363C102.289 146.349 102.375 146.363 102.452 146.402C102.53 146.439 102.59 146.5 102.627 146.581C102.665 146.659 102.677 146.748 102.663 146.833C102.649 146.919 102.609 146.999 102.549 147.06C102.489 147.122 102.411 147.163 102.327 147.177C102.243 147.191 102.156 147.178 102.079 147.14C102.002 147.104 101.94 147.041 101.906 146.961Z" fill="#A1AEE5" fill-opacity="0.8"/>
<path d="M176.789 120.661C176.751 120.583 176.737 120.494 176.751 120.408C176.764 120.321 176.804 120.242 176.865 120.18C176.925 120.118 177.003 120.077 177.088 120.063C177.172 120.048 177.259 120.062 177.336 120.101C177.413 120.137 177.475 120.201 177.511 120.279C177.549 120.358 177.562 120.446 177.548 120.532C177.534 120.618 177.494 120.698 177.434 120.76C177.373 120.822 177.295 120.863 177.211 120.877C177.127 120.891 177.04 120.878 176.963 120.839C176.886 120.803 176.824 120.74 176.789 120.661ZM82.7105 55.0316C82.6721 54.9534 82.6588 54.8648 82.6725 54.7785C82.6862 54.6922 82.7261 54.6124 82.7867 54.5506C82.8473 54.4887 82.9254 54.4479 83.01 54.4339C83.0946 54.42 83.1814 54.4335 83.258 54.4727C83.336 54.5089 83.3963 54.5705 83.4318 54.6502C83.4695 54.7283 83.4824 54.8165 83.4686 54.9025C83.4548 54.9884 83.415 55.0678 83.3548 55.1295C83.2945 55.1913 83.2169 55.2322 83.1328 55.2467C83.0486 55.2612 82.9622 55.2484 82.8855 55.2102C82.8078 55.1744 82.7455 55.1109 82.7105 55.0316ZM175.881 53.32C175.843 53.2418 175.829 53.1532 175.843 53.0669C175.857 52.9805 175.897 52.9008 175.957 52.839C176.018 52.7771 176.096 52.7363 176.181 52.7223C176.265 52.7084 176.352 52.7219 176.429 52.7611C176.507 52.7973 176.567 52.8589 176.602 52.9386C176.64 53.0167 176.653 53.1049 176.639 53.1908C176.625 53.2768 176.586 53.3562 176.525 53.4179C176.465 53.4797 176.388 53.5206 176.303 53.5351C176.219 53.5496 176.133 53.5368 176.056 53.4986C175.978 53.4628 175.916 53.3993 175.881 53.32ZM121.657 102.903C121.619 102.824 121.606 102.735 121.62 102.649C121.634 102.563 121.674 102.483 121.734 102.421C121.795 102.359 121.873 102.318 121.958 102.304C122.042 102.29 122.129 102.303 122.206 102.342C122.283 102.379 122.345 102.442 122.381 102.521C122.419 102.599 122.431 102.688 122.417 102.774C122.403 102.86 122.363 102.939 122.302 103.001C122.242 103.063 122.164 103.103 122.08 103.118C121.996 103.132 121.909 103.119 121.832 103.081C121.755 103.045 121.693 102.981 121.657 102.903Z" fill="#A1AEE5" fill-opacity="0.4"/>
<path d="M340.24 27.9596C340.201 27.8814 340.188 27.7926 340.201 27.706C340.215 27.6194 340.255 27.5393 340.315 27.4773C340.376 27.4152 340.454 27.3743 340.539 27.3603C340.624 27.3463 340.711 27.3601 340.788 27.3995C340.865 27.4357 340.927 27.4992 340.962 27.5782C341 27.6563 341.014 27.7448 341 27.8312C340.987 27.9175 340.947 27.9974 340.886 28.0594C340.826 28.1213 340.748 28.1623 340.663 28.1765C340.579 28.1906 340.492 28.1773 340.415 28.1382C340.338 28.102 340.276 28.0386 340.24 27.9596ZM-8.19283 194.423C-8.2304 194.345 -8.24307 194.257 -8.22908 194.171C-8.21509 194.085 -8.17512 194.006 -8.11478 193.944C-8.05444 193.882 -7.97675 193.842 -7.89257 193.827C-7.80839 193.813 -7.72195 193.826 -7.64533 193.864C-7.5661 193.901 -7.50697 193.962 -7.47032 194.042C-7.43206 194.12 -7.4189 194.209 -7.43269 194.295C-7.44649 194.382 -7.48655 194.462 -7.5472 194.523C-7.60786 194.585 -7.68604 194.626 -7.77071 194.64C-7.85537 194.654 -7.94222 194.641 -8.019 194.602C-8.09689 194.566 -8.15803 194.503 -8.19283 194.423Z" fill="#A1AEE5" fill-opacity="0.8"/>
</g>
</g>
<defs>
<filter id="filter0_b_350_893" x="-101.203" y="-101.203" width="591.407" height="416.407" filterUnits="userSpaceOnUse" color-interpolation-filters="sRGB">
<feFlood flood-opacity="0" result="BackgroundImageFix"/>
<feGaussianBlur in="BackgroundImageFix" stdDeviation="50.6017"/>
<feComposite in2="SourceAlpha" operator="in" result="effect1_backgroundBlur_350_893"/>
<feBlend mode="normal" in="SourceGraphic" in2="effect1_backgroundBlur_350_893" result="shape"/>
</filter>
<filter id="filter1_f_350_893" x="312.635" y="-231.907" width="517.765" height="531.958" filterUnits="userSpaceOnUse" color-interpolation-filters="sRGB">
<feFlood flood-opacity="0" result="BackgroundImageFix"/>
<feBlend mode="normal" in="SourceGraphic" in2="BackgroundImageFix" result="shape"/>
<feGaussianBlur stdDeviation="27.6985" result="effect1_foregroundBlur_350_893"/>
</filter>
<filter id="filter2_f_350_893" x="198.722" y="-226.023" width="517.764" height="531.958" filterUnits="userSpaceOnUse" color-interpolation-filters="sRGB">
<feFlood flood-opacity="0" result="BackgroundImageFix"/>
<feBlend mode="normal" in="SourceGraphic" in2="BackgroundImageFix" result="shape"/>
<feGaussianBlur stdDeviation="27.6985" result="effect1_foregroundBlur_350_893"/>
</filter>
<filter id="filter3_f_350_893" x="154.988" y="-285.894" width="517.764" height="531.959" filterUnits="userSpaceOnUse" color-interpolation-filters="sRGB">
<feFlood flood-opacity="0" result="BackgroundImageFix"/>
<feBlend mode="normal" in="SourceGraphic" in2="BackgroundImageFix" result="shape"/>
<feGaussianBlur stdDeviation="27.6985" result="effect1_foregroundBlur_350_893"/>
</filter>
<filter id="filter4_f_350_893" x="148.546" y="-262.014" width="517.766" height="531.958" filterUnits="userSpaceOnUse" color-interpolation-filters="sRGB">
<feFlood flood-opacity="0" result="BackgroundImageFix"/>
<feBlend mode="normal" in="SourceGraphic" in2="BackgroundImageFix" result="shape"/>
<feGaussianBlur stdDeviation="27.6985" result="effect1_foregroundBlur_350_893"/>
</filter>
<filter id="filter5_f_350_893" x="34.6328" y="-256.131" width="517.766" height="531.958" filterUnits="userSpaceOnUse" color-interpolation-filters="sRGB">
<feFlood flood-opacity="0" result="BackgroundImageFix"/>
<feBlend mode="normal" in="SourceGraphic" in2="BackgroundImageFix" result="shape"/>
<feGaussianBlur stdDeviation="27.6985" result="effect1_foregroundBlur_350_893"/>
</filter>
<filter id="filter6_f_350_893" x="-9.10085" y="-316.002" width="517.765" height="531.958" filterUnits="userSpaceOnUse" color-interpolation-filters="sRGB">
<feFlood flood-opacity="0" result="BackgroundImageFix"/>
<feBlend mode="normal" in="SourceGraphic" in2="BackgroundImageFix" result="shape"/>
<feGaussianBlur stdDeviation="27.6985" result="effect1_foregroundBlur_350_893"/>
</filter>
<filter id="filter7_f_350_893" x="357.476" y="-316.002" width="517.765" height="531.958" filterUnits="userSpaceOnUse" color-interpolation-filters="sRGB">
<feFlood flood-opacity="0" result="BackgroundImageFix"/>
<feBlend mode="normal" in="SourceGraphic" in2="BackgroundImageFix" result="shape"/>
<feGaussianBlur stdDeviation="27.6985" result="effect1_foregroundBlur_350_893"/>
</filter>
<linearGradient id="paint0_linear_350_893" x1="768.171" y1="-169.535" x2="523.516" y2="70.1407" gradientUnits="userSpaceOnUse">
<stop stop-color="white"/>
<stop offset="1" stop-color="#D3D8DF"/>
</linearGradient>
<linearGradient id="paint1_linear_350_893" x1="654.258" y1="-163.653" x2="409.603" y2="76.0239" gradientUnits="userSpaceOnUse">
<stop stop-color="white"/>
<stop offset="1" stop-color="#D3D8DF"/>
</linearGradient>
<linearGradient id="paint2_linear_350_893" x1="610.523" y1="-223.522" x2="365.868" y2="16.1548" gradientUnits="userSpaceOnUse">
<stop stop-color="white"/>
<stop offset="1" stop-color="#D3D8DF"/>
</linearGradient>
<linearGradient id="paint3_linear_350_893" x1="604.082" y1="-199.644" x2="359.427" y2="40.0329" gradientUnits="userSpaceOnUse">
<stop stop-color="white"/>
<stop offset="1" stop-color="#D3D8DF"/>
</linearGradient>
<linearGradient id="paint4_linear_350_893" x1="490.169" y1="-193.761" x2="245.514" y2="45.9162" gradientUnits="userSpaceOnUse">
<stop stop-color="white"/>
<stop offset="1" stop-color="#D3D8DF"/>
</linearGradient>
<linearGradient id="paint5_linear_350_893" x1="446.435" y1="-253.63" x2="201.78" y2="-13.9529" gradientUnits="userSpaceOnUse">
<stop stop-color="white"/>
<stop offset="1" stop-color="#D3D8DF"/>
</linearGradient>
<clipPath id="clip0_350_893">
<rect width="389" height="214" fill="white"/>
</clipPath>
<clipPath id="clip1_350_893">
<rect x="-111" y="-1" width="618" height="215" rx="27.6771" fill="white"/>
</clipPath>
</defs>
</svg>
