<svg width="50" height="53" viewBox="0 0 50 53" fill="none" xmlns="http://www.w3.org/2000/svg">
<g filter="url(#filter0_b_350_1305)">
<ellipse cx="25" cy="26.0274" rx="25" ry="26.0274" fill="#16385F" fillOpacity="0.7"/>
</g>
<path d="M31.8103 13.9951C29.6213 10.5734 23.1391 10.264 19.1348 13.5459C15.1305 16.8277 11.0989 16.5199 11.0989 16.5199C17.0033 18.9886 20.1151 14.0511 24.552 13.378C28.989 12.7048 30.5154 14.8642 30.5154 14.8642H27.8151C27.8151 14.8701 27.8151 14.876 27.8151 14.8819C27.8151 15.449 27.3431 15.9086 26.7607 15.9086C26.1783 15.9086 25.7063 15.449 25.7063 14.8819C25.7063 14.876 25.7063 14.8686 25.7063 14.8613C22.3388 14.8053 18.8201 17.2593 19.1907 20.8667C19.5659 24.5124 21.8411 25.6068 21.8411 25.6068C19.8821 20.1936 24.1451 18.0341 24.1451 18.0341C21.0348 22.5504 22.9061 25.8882 27.7455 29.6738C32.5349 33.4211 31.4276 38.095 31.4049 38.1907C36.4349 29.5898 31.712 25.9633 28.3899 23.0836C25.0679 20.2039 28.216 17.4729 31.5199 17.5289C34.7875 17.5834 33.9585 20.2554 33.9403 20.3143C39.0127 14.8834 31.8103 13.9951 31.8103 13.9951Z" fill="url(#paint0_linear_350_1305)"/>
<path d="M17.4648 19.7185C17.4648 19.7185 14.4695 25.0478 18.2999 29.508C22.1302 33.9683 29.9089 34.9213 28.2963 41.8504C28.2963 41.8504 32.0147 37.642 28.5141 32.9298C25.0121 28.2177 18.194 26.8979 17.4648 19.7185ZM27.2116 34.0655C27.1814 34.092 27.0997 34.148 27.0059 34.0699C26.0211 33.2436 24.9183 32.541 23.8472 31.859C22.2785 30.8588 20.6568 29.8247 19.5267 28.5079C19.0411 27.9422 18.6629 27.3265 18.4012 26.6769C18.3332 26.509 18.4572 26.4192 18.4965 26.3956C18.5177 26.3838 18.5646 26.3602 18.6236 26.3602C18.675 26.3602 18.7371 26.3794 18.7946 26.4427C20.0396 27.8347 21.4933 28.9144 22.9017 29.9603C24.5416 31.1784 26.0922 32.3289 27.2162 33.8416L27.2343 33.8667C27.3069 33.9639 27.2419 34.0375 27.2116 34.0655Z" fill="url(#paint1_linear_350_1305)"/>
<path d="M18.4257 33.7798C13.1643 30.5259 13.317 24.5426 13.317 24.5426C10.3989 31.0871 13.8934 35.9863 19.943 38.7541C25.2513 41.1816 26.3451 43.0921 26.5342 43.5237C26.5599 43.5841 26.569 43.615 26.569 43.615C26.5705 43.5325 26.5705 43.4515 26.569 43.372V43.3705C26.5266 39.3684 23.5827 36.9688 18.4257 33.7798ZM21.3711 37.6788C21.3438 37.723 21.1926 37.9322 20.9233 37.8055C20.7841 37.7392 20.6419 37.6729 20.4967 37.6066C18.5573 36.7184 15.9523 35.1556 14.556 32.7443C14.4562 32.5719 14.5863 32.4659 14.6286 32.4379C14.6468 32.4261 14.7058 32.3907 14.7799 32.3907C14.8374 32.3907 14.9024 32.4128 14.9629 32.4821C15.7511 33.4071 16.6815 34.204 17.7283 34.8507C19.2486 35.7919 20.3802 36.5461 21.2879 37.2266C21.5269 37.4048 21.3998 37.6346 21.3711 37.6788Z" fill="url(#paint2_linear_350_1305)"/>
<path d="M14.3924 22.372C14.9294 20.2406 16.6207 18.2947 16.6207 18.2947C16.6207 18.2947 15.0837 18.5938 13.3168 20.9506C11.5499 23.3074 10.4365 24.0542 10.4365 24.0542C12.7404 24.0925 14.3924 22.372 14.3924 22.372Z" fill="url(#paint3_linear_350_1305)"/>
<path d="M41.0262 10.6328C36.7586 6.47743 31.0842 4.18986 25.0497 4.18986C19.0153 4.18986 13.3408 6.47743 9.0733 10.6328C4.80576 14.7881 2.45642 20.3119 2.45642 26.1892C2.45642 32.065 4.80576 37.5902 9.0733 41.7456C13.3408 45.9009 19.0138 48.1885 25.0497 48.1885C31.0842 48.1885 36.7586 45.8995 41.0262 41.7456C45.2937 37.5902 47.643 32.0665 47.643 26.1892C47.643 20.3134 45.2922 14.7881 41.0262 10.6328ZM25.0497 46.3767C13.6177 46.3767 4.31713 37.3207 4.31713 26.1892C4.31713 15.0577 13.6177 6.00165 25.0497 6.00165C36.4818 6.00165 45.7823 15.0577 45.7823 26.1892C45.7823 37.3207 36.4818 46.3767 25.0497 46.3767Z" fill="url(#paint4_linear_350_1305)"/>
<defs>
<filter id="filter0_b_350_1305" x="-4" y="-4" width="58" height="60.0548" filterUnits="userSpaceOnUse" color-interpolation-filters="sRGB">
<feFlood flood-opacity="0" result="BackgroundImageFix"/>
<feGaussianBlur in="BackgroundImageFix" stdDeviation="2"/>
<feComposite in2="SourceAlpha" operator="in" result="effect1_backgroundBlur_350_1305"/>
<feBlend mode="normal" in="SourceGraphic" in2="effect1_backgroundBlur_350_1305" result="shape"/>
</filter>
<linearGradient id="paint0_linear_350_1305" x1="23.4245" y1="2.99952" x2="23.4245" y2="54.7105" gradientUnits="userSpaceOnUse">
<stop offset="0.3" stopColor="#FEFF00"/>
<stop offset="0.5" stopColor="#4CBA17"/>
<stop offset="0.7" stopColor="#1B78E3"/>
</linearGradient>
<linearGradient id="paint1_linear_350_1305" x1="23.1826" y1="3.00019" x2="23.1826" y2="54.7112" gradientUnits="userSpaceOnUse">
<stop offset="0.3" stopColor="#FEFF00"/>
<stop offset="0.5" stopColor="#4CBA17"/>
<stop offset="0.7" stopColor="#1B78E3"/>
</linearGradient>
<linearGradient id="paint2_linear_350_1305" x1="19.4196" y1="3.00024" x2="19.4196" y2="54.7112" gradientUnits="userSpaceOnUse">
<stop offset="0.3" stopColor="#FEFF00"/>
<stop offset="0.5" stopColor="#4CBA17"/>
<stop offset="0.7" stopColor="#1B78E3"/>
</linearGradient>
<linearGradient id="paint3_linear_350_1305" x1="13.5279" y1="2.99942" x2="13.5279" y2="54.7103" gradientUnits="userSpaceOnUse">
<stop offset="0.3" stopColor="#FEFF00"/>
<stop offset="0.5" stopColor="#4CBA17"/>
<stop offset="0.7" stopColor="#1B78E3"/>
</linearGradient>
<linearGradient id="paint4_linear_350_1305" x1="25.0496" y1="3.00002" x2="25.0496" y2="54.711" gradientUnits="userSpaceOnUse">
<stop offset="0.3" stopColor="#FEFF00"/>
<stop offset="0.5" stopColor="#4CBA17"/>
<stop offset="0.7" stopColor="#1B78E3"/>
</linearGradient>
</defs>
</svg>
