<svg width="64" height="64" viewBox="0 0 64 64" fill="none" xmlns="http://www.w3.org/2000/svg">
<g filter="url(#filter0_b_350_1316)">
<circle cx="32" cy="32" r="32" fill="#16385F" fill-opacity="0.7"/>
</g>
<path d="M40.133 16.3908C37.3311 12.0109 29.0338 11.6149 23.9083 15.8157C18.7828 20.0165 13.6224 19.6224 13.6224 19.6224C21.18 22.7824 25.163 16.4624 30.8424 15.6008C36.5217 14.7391 38.4755 17.5032 38.4755 17.5032H35.0191C35.0191 17.5107 35.0191 17.5183 35.0191 17.5258C35.0191 18.2517 34.4149 18.84 33.6694 18.84C32.924 18.84 32.3198 18.2517 32.3198 17.5258C32.3198 17.5183 32.3198 17.5089 32.3198 17.4994C28.0095 17.4278 23.5055 20.5689 23.9799 25.1864C24.4601 29.8529 27.3724 31.2538 27.3724 31.2538C24.8648 24.3247 30.3215 21.5607 30.3215 21.5607C26.3403 27.3415 28.7356 31.6139 34.93 36.4595C41.0605 41.256 39.6431 47.2386 39.614 47.3611C46.0524 36.352 40.0071 31.71 35.7549 28.024C31.5027 24.3379 35.5322 20.8423 39.7612 20.914C43.9437 20.9837 42.8826 24.4039 42.8594 24.4793C49.352 17.5277 40.133 16.3908 40.133 16.3908Z" fill="url(#paint0_linear_350_1316)"/>
<path d="M21.7707 23.7166C21.7707 23.7166 17.9367 30.5381 22.8396 36.2473C27.7424 41.9564 37.6992 43.1763 35.635 52.0454C35.635 52.0454 40.3946 46.6587 35.9138 40.6272C31.4312 34.5956 22.704 32.9063 21.7707 23.7166ZM34.2466 42.0809C34.2079 42.1148 34.1034 42.1864 33.9833 42.0865C32.7227 41.0288 31.3111 40.1294 29.9402 39.2565C27.9322 37.9762 25.8564 36.6526 24.41 34.9671C23.7884 34.243 23.3043 33.4549 22.9693 32.6235C22.8822 32.4085 23.041 32.2935 23.0913 32.2633C23.1184 32.2482 23.1784 32.2181 23.254 32.2181C23.3198 32.2181 23.3992 32.2426 23.4728 32.3237C25.0664 34.1054 26.9272 35.4874 28.73 36.8261C30.829 38.3854 32.8137 39.8579 34.2524 41.7943L34.2757 41.8263C34.3686 41.9508 34.2854 42.045 34.2466 42.0809Z" fill="url(#paint1_linear_350_1316)"/>
<path d="M23.0007 41.7151C16.2661 37.5501 16.4616 29.8914 16.4616 29.8914C12.7264 38.2685 17.1994 44.5395 24.9429 48.0822C31.7375 51.1894 33.1375 53.6349 33.3795 54.1873C33.4125 54.2646 33.4241 54.3042 33.4241 54.3042C33.426 54.1986 33.426 54.0949 33.4241 53.9931V53.9912C33.3699 48.8685 29.6017 45.7971 23.0007 41.7151ZM26.7708 46.7059C26.7359 46.7624 26.5423 47.0302 26.1976 46.868C26.0195 46.7832 25.8375 46.6983 25.6516 46.6135C23.1692 45.4765 19.8348 43.4761 18.0475 40.3896C17.9197 40.169 18.0862 40.0333 18.1404 39.9974C18.1637 39.9824 18.2392 39.9371 18.3341 39.9371C18.4077 39.9371 18.4909 39.9654 18.5684 40.054C19.5772 41.2381 20.7681 42.2581 22.108 43.0858C24.0541 44.2906 25.5025 45.2559 26.6643 46.127C26.9702 46.3552 26.8076 46.6493 26.7708 46.7059Z" fill="url(#paint2_linear_350_1316)"/>
<path d="M17.838 27.1132C18.5254 24.3849 20.6903 21.8943 20.6903 21.8943C20.6903 21.8943 18.723 22.277 16.4613 25.2937C14.1996 28.3104 12.7745 29.2663 12.7745 29.2663C15.7235 29.3154 17.838 27.1132 17.838 27.1132Z" fill="url(#paint3_linear_350_1316)"/>
<path d="M51.9293 12.0869C46.4668 6.7681 39.2035 3.84 31.4794 3.84C23.7553 3.84 16.4921 6.7681 11.0296 12.0869C5.56715 17.4058 2.56 24.4762 2.56 31.9991C2.56 39.5202 5.56715 46.5925 11.0296 51.9113C16.4921 57.2302 23.7534 60.1583 31.4794 60.1583C39.2035 60.1583 46.4668 57.2283 51.9293 51.9113C57.3917 46.5925 60.3989 39.5221 60.3989 31.9991C60.3989 24.4781 57.3898 17.4058 51.9293 12.0869ZM31.4794 57.8392C16.8464 57.8392 4.94171 46.2475 4.94171 31.9991C4.94171 17.7508 16.8464 6.1591 31.4794 6.1591C46.1125 6.1591 58.0171 17.7508 58.0171 31.9991C58.0171 46.2475 46.1125 57.8392 31.4794 57.8392Z" fill="url(#paint4_linear_350_1316)"/>
<defs>
<filter id="filter0_b_350_1316" x="-4" y="-4" width="72" height="72" filterUnits="userSpaceOnUse" color-interpolation-filters="sRGB">
<feFlood flood-opacity="0" result="BackgroundImageFix"/>
<feGaussianBlur in="BackgroundImageFix" stdDeviation="2"/>
<feComposite in2="SourceAlpha" operator="in" result="effect1_backgroundBlur_350_1316"/>
<feBlend mode="normal" in="SourceGraphic" in2="effect1_backgroundBlur_350_1316" result="shape"/>
</filter>
<linearGradient id="paint0_linear_350_1316" x1="29.3991" y1="2.31638" x2="29.3991" y2="68.5064" gradientUnits="userSpaceOnUse">
<stop offset="0.3" stop-color="#FEFF00"/>
<stop offset="0.5" stop-color="#4CBA17"/>
<stop offset="0.7" stop-color="#1B78E3"/>
</linearGradient>
<linearGradient id="paint1_linear_350_1316" x1="29.0895" y1="2.31723" x2="29.0895" y2="68.5073" gradientUnits="userSpaceOnUse">
<stop offset="0.3" stop-color="#FEFF00"/>
<stop offset="0.5" stop-color="#4CBA17"/>
<stop offset="0.7" stop-color="#1B78E3"/>
</linearGradient>
<linearGradient id="paint2_linear_350_1316" x1="24.2729" y1="2.31726" x2="24.2729" y2="68.5072" gradientUnits="userSpaceOnUse">
<stop offset="0.3" stop-color="#FEFF00"/>
<stop offset="0.5" stop-color="#4CBA17"/>
<stop offset="0.7" stop-color="#1B78E3"/>
</linearGradient>
<linearGradient id="paint3_linear_350_1316" x1="16.7315" y1="2.31624" x2="16.7315" y2="68.5062" gradientUnits="userSpaceOnUse">
<stop offset="0.3" stop-color="#FEFF00"/>
<stop offset="0.5" stop-color="#4CBA17"/>
<stop offset="0.7" stop-color="#1B78E3"/>
</linearGradient>
<linearGradient id="paint4_linear_350_1316" x1="31.4793" y1="2.31701" x2="31.4793" y2="68.507" gradientUnits="userSpaceOnUse">
<stop offset="0.3" stop-color="#FEFF00"/>
<stop offset="0.5" stop-color="#4CBA17"/>
<stop offset="0.7" stop-color="#1B78E3"/>
</linearGradient>
</defs>
</svg>
