<svg width="80" height="80" viewBox="0 0 80 80" fill="none" xmlns="http://www.w3.org/2000/svg">
<circle cx="40" cy="40" r="40" fill="#545454"/>
<path fill-rule="evenodd" clip-rule="evenodd" d="M29.8415 27.3016C29.8415 24.6073 30.9118 22.0234 32.8169 20.1183C34.722 18.2131 37.3059 17.1429 40.0002 17.1429C42.6945 17.1429 45.2784 18.2131 47.1835 20.1183C49.0886 22.0234 50.1589 24.6073 50.1589 27.3016C50.1589 29.9958 49.0886 32.5798 47.1835 34.4849C45.2784 36.39 42.6945 37.4603 40.0002 37.4603C37.3059 37.4603 34.722 36.39 32.8169 34.4849C30.9118 32.5798 29.8415 29.9958 29.8415 27.3016ZM29.8415 42.5397C26.4737 42.5397 23.2438 43.8775 20.8623 46.259C18.4809 48.6404 17.1431 51.8703 17.1431 55.2381C17.1431 57.2588 17.9458 59.1967 19.3746 60.6256C20.8035 62.0544 22.7414 62.8571 24.7621 62.8571H55.2383C57.259 62.8571 59.1969 62.0544 60.6258 60.6256C62.0546 59.1967 62.8574 57.2588 62.8574 55.2381C62.8574 51.8703 61.5195 48.6404 59.1381 46.259C56.7567 43.8775 53.5268 42.5397 50.1589 42.5397H29.8415Z" fill="white"/>
</svg>
